<?xml version="1.0" encoding="UTF-8" standalone="no"?>
<svg xmlns="http://www.w3.org/2000/svg" version="1.2" baseProfile="tiny" viewBox="0 0 1448 1448">
<g stroke-width="1.80" fill="none" stroke-linecap="butt">
<path stroke="#f4bb97" vector-effect="non-scaling-stroke" d="
  M 544.17 486.03
  C 544.07 486.09 543.93 486.09 543.83 486.03
  L 474.95 446.52
  C 474.71 446.39 474.71 446.05 474.95 445.92
  L 711.98 309.11
  C 712.21 308.98 712.50 309.15 712.50 309.42
  L 712.50 388.42
  C 712.50 388.54 712.43 388.66 712.33 388.72
  L 544.17 486.03"
/>
<path stroke="#f4bb97" vector-effect="non-scaling-stroke" d="
  M 735.84 311.23
  C 735.71 311.72 735.65 312.23 735.66 312.78
  C 736.01 337.81 736.10 362.91 735.94 388.08
  C 735.94 388.40 736.12 388.70 736.40 388.87
  L 903.76 485.73
  C 904.07 485.91 904.42 485.93 904.71 485.80
  C 906.24 485.10 907.74 484.33 909.21 483.48
  C 930.43 471.18 951.64 458.91 972.84 446.68
  C 973.20 446.47 973.16 445.94 972.77 445.71
  L 736.75 309.24
  C 736.44 309.06 736.08 309.09 735.91 309.31
  C 735.68 309.61 735.63 309.94 735.76 310.31
  C 735.88 310.65 735.91 310.97 735.84 311.23"
/>
<path stroke="#f4bb97" vector-effect="non-scaling-stroke" d="
  M 724.32 798.61
  C 724.15 798.71 723.93 798.71 723.76 798.61
  L 555.77 701.40
  C 555.60 701.30 555.50 701.12 555.50 700.92
  L 555.50 506.47
  C 555.50 506.27 555.60 506.09 555.77 505.99
  L 723.72 408.79
  C 723.89 408.69 724.11 408.69 724.28 408.79
  L 892.23 505.97
  C 892.40 506.07 892.50 506.25 892.50 506.45
  L 892.50 700.95
  C 892.50 701.15 892.40 701.33 892.23 701.43
  L 724.32 798.61"
/>
<path stroke="#f4bb97" vector-effect="non-scaling-stroke" d="
  M 512.02 712.65
  C 517.37 709.49 524.96 705.49 531.33 701.52
  C 531.75 701.26 532.00 700.78 532.00 700.25
  L 532.00 506.75
  C 532.00 506.40 531.83 506.09 531.56 505.94
  L 463.38 467.08
  C 462.91 466.81 462.69 466.95 462.71 467.48
  C 463.19 480.84 462.81 498.39 462.84 507.49
  C 463.08 573.13 463.09 638.77 462.87 704.41
  C 462.83 714.88 463.12 728.47 462.98 740.51
  C 462.97 740.84 463.12 740.93 463.41 740.76
  C 479.72 731.53 495.92 722.16 512.02 712.65"
/>
<path stroke="#f4bb97" vector-effect="non-scaling-stroke" d="
  M 918.39 504.86
  C 917.75 505.23 917.10 505.63 916.44 506.05
  C 916.17 506.22 916.01 506.48 916.01 506.75
  L 916.00 700.75
  C 916.00 701.04 916.18 701.33 916.47 701.50
  L 984.65 741.37
  C 985.06 741.60 985.27 741.48 985.27 741.00
  L 985.21 467.50
  C 985.21 467.27 984.94 467.15 984.71 467.27
  C 962.49 479.57 940.38 492.10 918.39 504.86"
/>
<path stroke="#f4bb97" vector-effect="non-scaling-stroke" d="
  M 474.98 762.04
  L 711.51 898.28
  C 711.72 898.40 711.97 898.11 711.97 897.75
  L 712.09 819.75
  C 712.09 819.36 711.99 819.04 711.83 818.91
  C 711.06 818.28 709.80 817.47 708.05 816.46
  C 653.38 784.81 598.70 753.16 544.01 721.52
  C 543.74 721.37 543.38 721.38 543.06 721.57
  L 474.93 761.43
  C 474.71 761.56 474.73 761.90 474.98 762.04"
/>
<path stroke="#f4bb97" vector-effect="non-scaling-stroke" d="
  M 903.87 721.36
  C 903.98 721.30 904.12 721.30 904.23 721.37
  L 973.08 761.42
  C 973.32 761.56 973.32 761.90 973.08 762.04
  L 736.04 898.32
  C 735.80 898.46 735.50 898.28 735.50 898.01
  L 735.50 819.00
  C 735.50 818.87 735.57 818.75 735.68 818.69
  L 903.87 721.36"
/>
<path stroke="#f4bb97" vector-effect="non-scaling-stroke" d="
  M 453.95 940.51
  C 470.58 933.75 476.52 952.60 467.86 963.68
  C 467.43 964.23 467.56 964.50 468.25 964.50
  L 478.00 964.50
  C 478.33 964.50 478.62 964.33 478.76 964.06
  C 495.40 931.98 459.74 915.76 436.50 932.20
  C 418.72 944.78 427.56 963.82 435.63 979.25
  C 435.92 979.81 435.70 980.50 435.14 980.78
  C 421.52 987.65 409.80 999.88 411.36 1016.07
  C 413.63 1039.78 439.65 1046.99 457.71 1035.31
  C 477.30 1022.63 472.57 1000.72 462.79 983.23
  C 458.09 974.82 453.76 966.22 449.79 957.45
  C 447.21 951.75 446.94 943.35 453.95 940.51"
/>
<path stroke="#f4bb97" vector-effect="non-scaling-stroke" d="
  M 514.54 938.16
  C 514.54 931.64 509.25 926.35 502.73 926.35
  C 496.21 926.35 490.92 931.64 490.92 938.16
  C 490.92 944.68 496.21 949.97 502.73 949.97
  C 509.25 949.97 514.54 944.68 514.54 938.16"
/>
<path stroke="#f9e0cc" vector-effect="non-scaling-stroke" d="
  M 906.55 982.43
  C 905.65 985.32 905.31 988.26 905.54 991.25"
/>
<path stroke="#f4bb97" vector-effect="non-scaling-stroke" d="
  M 905.54 991.25
  C 904.71 1000.31 903.71 1009.34 902.52 1018.35
  C 898.64 1047.76 936.90 1046.32 942.79 1025.99
  C 947.64 1009.24 939.99 993.99 927.13 983.55
  C 926.86 983.33 926.72 983.02 926.78 982.76
  L 927.33 980.01
  C 927.39 979.71 927.67 979.50 928.00 979.50
  L 950.00 979.50
  C 950.41 979.50 950.75 979.28 950.75 979.00
  L 950.75 968.50
  C 950.75 968.22 950.41 968.00 950.00 968.00
  L 929.25 968.00
  C 928.99 968.00 928.80 967.75 928.83 967.47
  C 929.94 957.88 931.10 948.30 932.31 938.72
  C 933.94 925.74 923.23 924.46 913.67 927.14
  C 913.36 927.22 913.14 927.49 913.10 927.82
  L 908.40 967.24
  C 908.35 967.66 907.96 967.98 907.50 967.99
  L 895.69 968.03
  C 895.40 968.03 895.14 968.26 895.08 968.57
  L 894.19 972.68
  C 894.09 973.11 893.85 973.11 893.48 972.67
  C 886.65 964.67 873.38 967.82 866.80 974.16
  C 866.57 974.39 866.41 974.34 866.34 974.03
  C 864.36 965.97 852.65 967.48 846.55 969.64
  C 846.26 969.74 846.05 970.00 846.02 970.31
  C 844.04 989.35 842.63 1001.49 841.79 1006.74
  C 840.81 1012.88 835.33 1025.03 828.33 1026.79
  C 820.39 1028.77 822.42 1017.70 822.71 1013.51
  C 823.09 1008.27 824.19 1002.74 824.77 997.31
  C 825.74 988.11 827.36 979.03 828.19 969.79
  C 828.22 969.50 828.07 969.23 827.82 969.15
  C 821.97 967.30 816.29 967.66 810.80 970.23
  C 810.46 970.39 810.09 970.42 809.78 970.32
  C 777.35 959.81 749.66 985.69 756.01 1019.07
  C 756.07 1019.40 756.01 1019.73 755.85 1020.00
  C 751.94 1026.65 740.07 1032.22 741.70 1017.99
  C 742.59 1010.30 743.62 1002.63 744.81 994.96
  C 745.70 989.17 745.90 985.00 745.41 982.47
  C 742.15 965.76 718.68 964.60 708.01 973.81
  C 706.72 974.92 706.21 974.64 706.48 972.95
  C 708.62 959.87 710.29 947.24 711.50 935.06
  C 712.55 924.35 698.64 925.45 692.19 927.06
  C 691.90 927.13 691.69 927.37 691.66 927.66
  L 689.21 948.50"
/>
<path stroke="#f9e0cc" vector-effect="non-scaling-stroke" d="
  M 689.21 948.50
  C 688.54 951.13 688.24 953.79 688.29 956.50"
/>
<path stroke="#f4bb97" vector-effect="non-scaling-stroke" d="
  M 688.29 956.50
  L 686.29 973.00"
/>
<path stroke="#f9e0cc" vector-effect="non-scaling-stroke" d="
  M 686.29 973.00
  L 685.46 982.00"
/>
<path stroke="#f4bb97" vector-effect="non-scaling-stroke" d="
  M 685.46 982.00
  L 685.21 984.00"
/>
<path stroke="#f9e0cc" vector-effect="non-scaling-stroke" d="
  M 685.21 984.00
  L 684.29 989.25"
/>
<path stroke="#f4bb97" vector-effect="non-scaling-stroke" d="
  M 684.29 989.25
  C 683.49 997.93 682.54 1006.59 681.45 1015.22
  C 681.14 1017.64 680.49 1019.56 679.48 1020.97
  C 676.08 1025.76 664.93 1032.19 666.15 1019.89
  C 667.85 1002.64 669.90 985.42 672.29 968.25"
/>
<path stroke="#f9e0cc" vector-effect="non-scaling-stroke" d="
  M 672.29 968.25
  C 673.00 966.41 673.23 964.49 672.96 962.50"
/>
<path stroke="#f4bb97" vector-effect="non-scaling-stroke" d="
  M 672.96 962.50
  L 677.51 928.04
  C 677.55 927.75 677.37 927.47 677.09 927.38
  C 671.27 925.45 657.32 925.37 656.29 933.83
  C 654.86 945.61 653.44 957.41 652.03 969.22
  C 652.00 969.48 651.74 969.65 651.48 969.58
  C 619.15 961.30 595.55 985.33 599.44 1017.50
  C 599.47 1017.78 599.38 1018.11 599.19 1018.45
  C 597.60 1021.23 595.53 1023.57 592.96 1025.47
  C 591.49 1026.56 589.97 1027.06 588.41 1026.99
  C 585.36 1026.84 583.96 1025.01 584.22 1021.49
  C 584.90 1012.48 585.83 1003.48 587.00 994.49
  C 589.89 972.41 592.75 950.30 595.58 928.16
  C 595.62 927.87 595.46 927.59 595.19 927.48
  C 588.85 925.05 579.70 925.69 574.98 931.33
  C 574.75 931.60 574.61 931.94 574.56 932.31
  L 570.16 969.24
  C 570.13 969.49 569.89 969.66 569.65 969.60
  C 536.71 961.13 512.52 986.50 517.83 1019.19
  C 517.89 1019.52 517.84 1019.85 517.69 1020.14
  C 513.60 1027.92 501.22 1031.48 503.02 1017.75
  C 505.13 1001.67 507.21 985.57 509.28 969.46
  C 509.30 969.26 509.18 969.07 508.98 969.02
  C 502.86 967.54 493.02 967.77 488.54 973.10
  C 488.34 973.34 488.21 973.65 488.16 973.98
  C 486.58 987.05 485.06 1000.13 483.61 1013.21
  C 482.11 1026.74 482.16 1037.86 497.45 1040.52
  C 506.16 1042.03 514.31 1039.20 520.18 1032.63
  C 520.93 1031.79 521.73 1031.01 522.60 1030.29
  C 522.81 1030.11 523.13 1030.13 523.31 1030.34
  C 534.50 1043.14 552.47 1044.62 564.72 1031.88
  C 565.13 1031.45 565.84 1031.55 566.12 1032.07
  C 568.93 1037.26 574.53 1039.96 580.49 1040.34
  C 590.09 1040.96 597.78 1037.15 603.56 1028.92
  C 603.70 1028.72 604.00 1028.72 604.15 1028.91
  C 614.68 1042.60 635.24 1045.66 646.97 1031.55
  C 647.12 1031.36 647.41 1031.38 647.54 1031.59
  C 654.19 1042.47 668.35 1042.61 678.08 1036.30
  C 678.79 1035.84 679.10 1035.99 679.01 1036.74
  L 678.70 1039.25
  C 678.67 1039.52 678.93 1039.75 679.25 1039.75
  L 698.00 1039.75
  C 698.22 1039.75 698.42 1039.48 698.47 1039.13
  C 700.22 1025.21 701.99 1011.29 703.78 997.38
  C 704.81 989.44 709.38 977.92 719.68 980.78
  C 727.11 982.85 725.59 990.60 724.86 997.26
  C 724.17 1003.63 723.48 1009.98 722.79 1016.33
  C 722.24 1021.39 722.27 1025.14 722.88 1027.59
  C 725.40 1037.67 734.59 1041.67 744.48 1040.02
  C 750.85 1038.95 756.17 1035.64 760.45 1030.09
  C 760.61 1029.88 760.91 1029.87 761.08 1030.06
  C 772.58 1042.96 790.78 1045.02 803.43 1031.55
  C 803.59 1031.37 803.89 1031.41 804.02 1031.62
  C 812.96 1046.37 833.21 1041.30 841.75 1029.04
  C 841.94 1028.77 842.09 1028.79 842.20 1029.10
  C 844.98 1036.88 850.84 1040.41 858.78 1040.66
  C 870.96 1041.05 880.23 1033.53 881.70 1021.67
  C 883.38 1008.04 876.53 997.61 866.32 989.09
  C 866.09 988.90 866.01 988.58 866.12 988.30
  C 869.56 979.87 882.17 976.43 881.48 990.04
  C 881.46 990.32 881.69 990.56 881.98 990.57
  C 889.39 990.65 893.99 987.17 895.76 980.13
  C 895.85 979.76 896.06 979.50 896.25 979.50
  L 906.25 979.50
  C 906.50 979.50 906.70 979.75 906.68 980.04
  L 906.55 982.43"
/>
<path stroke="#ee9c64" vector-effect="non-scaling-stroke" d="
  M 672.96 962.50
  L 672.29 968.25"
/>
<path stroke="#ee9c64" vector-effect="non-scaling-stroke" d="
  M 684.29 989.25
  C 685.35 987.69 685.66 985.94 685.21 984.00"
/>
<path stroke="#ee9c64" vector-effect="non-scaling-stroke" d="
  M 685.46 982.00
  C 686.19 979.04 686.47 976.04 686.29 973.00"
/>
<path stroke="#ee9c64" vector-effect="non-scaling-stroke" d="
  M 688.29 956.50
  C 689.09 953.89 689.40 951.23 689.21 948.50"
/>
<path stroke="#ee9c64" vector-effect="non-scaling-stroke" d="
  M 905.54 991.25
  C 906.65 988.42 906.98 985.48 906.55 982.43"
/>
<path stroke="#f4bb97" vector-effect="non-scaling-stroke" d="
  M 975.64 974.16
  C 977.59 961.23 979.29 948.10 980.73 934.75
  C 981.84 924.45 967.44 925.42 961.31 927.25
  C 961.04 927.33 960.84 927.63 960.80 928.01
  L 947.97 1038.50
  C 947.89 1039.16 948.37 1039.75 949.00 1039.75
  L 967.25 1039.75
  C 967.45 1039.75 967.64 1039.48 967.69 1039.13
  C 969.50 1024.34 971.37 1009.57 973.30 994.80
  C 974.00 989.44 978.53 981.02 984.26 980.52
  C 994.51 979.62 995.18 986.48 994.32 994.71
  C 993.46 1002.96 992.60 1011.18 991.74 1019.38
  C 990.35 1032.56 998.42 1041.53 1011.81 1040.30
  C 1025.59 1039.03 1032.84 1027.69 1036.50 1015.60
  C 1036.84 1014.47 1036.75 1013.39 1036.26 1012.75
  L 1031.39 1006.38
  C 1031.13 1006.04 1030.92 1006.14 1030.77 1006.67
  C 1028.71 1013.77 1024.66 1025.09 1016.59 1026.77
  C 1010.40 1028.07 1010.57 1020.93 1011.07 1016.67
  C 1011.97 1009.07 1013.00 1001.48 1014.17 993.91
  C 1015.56 984.89 1015.55 977.79 1008.32 972.40
  C 998.94 965.42 985.43 967.11 976.32 974.55
  C 975.76 975.00 975.53 974.87 975.64 974.16"
/>
<path stroke="#f4bb97" vector-effect="non-scaling-stroke" d="
  M 575.49 1072.39
  C 575.49 1070.11 573.64 1068.26 571.36 1068.26
  L 569.16 1068.26
  C 566.88 1068.26 565.03 1070.11 565.03 1072.39
  L 565.03 1135.03
  C 565.03 1137.31 566.88 1139.16 569.16 1139.16
  L 571.36 1139.16
  C 573.64 1139.16 575.49 1137.31 575.49 1135.03
  L 575.49 1072.39"
/>
<path stroke="#f4bb97" vector-effect="non-scaling-stroke" d="
  M 696.58 1091.27
  C 702.05 1105.40 707.62 1119.40 713.27 1133.25
  C 715.02 1137.55 718.12 1139.48 722.56 1139.03
  C 727.75 1138.50 731.28 1137.65 731.27 1131.38
  C 731.24 1112.09 731.23 1092.78 731.26 1073.45
  C 731.27 1068.45 727.74 1067.20 723.34 1068.71
  C 721.78 1069.24 721.00 1070.34 721.00 1072.00
  L 721.00 1119.00
  C 721.00 1119.32 720.89 1119.62 720.70 1119.84
  C 719.53 1121.18 718.38 1120.32 717.83 1118.94
  C 711.90 1103.99 705.94 1089.06 699.94 1074.14
  C 697.22 1067.38 689.21 1066.61 683.93 1069.89
  C 682.48 1070.79 681.76 1072.10 681.76 1073.82
  L 681.75 1135.25
  C 681.75 1136.92 682.59 1138.03 684.27 1138.59
  C 689.75 1140.41 692.27 1138.35 692.26 1132.81
  C 692.25 1117.96 692.24 1103.10 692.25 1088.25
  C 692.25 1087.84 692.38 1087.50 692.58 1087.38
  C 693.56 1086.79 694.38 1086.90 695.05 1087.69
  C 695.22 1087.88 695.73 1089.08 696.58 1091.27"
/>
<path stroke="#f4bb97" vector-effect="non-scaling-stroke" d="
  M 999.57 1072.11
  C 999.57 1070.00 997.86 1068.29 995.75 1068.29
  L 993.07 1068.29
  C 990.96 1068.29 989.25 1070.00 989.25 1072.11
  L 989.25 1135.29
  C 989.25 1137.40 990.96 1139.11 993.07 1139.11
  L 995.75 1139.11
  C 997.86 1139.11 999.57 1137.40 999.57 1135.29
  L 999.57 1072.11"
/>
<path stroke="#f4bb97" vector-effect="non-scaling-stroke" d="
  M 1036.99 1072.43
  C 1036.99 1070.12 1035.11 1068.24 1032.80 1068.24
  L 1030.70 1068.24
  C 1028.39 1068.24 1026.51 1070.12 1026.51 1072.43
  L 1026.51 1134.97
  C 1026.51 1137.28 1028.39 1139.16 1030.70 1139.16
  L 1032.80 1139.16
  C 1035.11 1139.16 1036.99 1137.28 1036.99 1134.97
  L 1036.99 1072.43"
/>
<path stroke="#f4bb97" vector-effect="non-scaling-stroke" d="
  M 446.43 1108.55
  C 449.03 1111.92 450.33 1129.73 443.51 1129.74
  C 438.37 1129.75 433.22 1129.76 428.07 1129.75
  C 415.28 1129.74 427.30 1115.55 416.74 1114.81
  C 413.16 1114.56 411.33 1115.34 411.06 1119.24
  C 409.56 1140.61 424.24 1139.07 440.22 1138.74
  C 452.49 1138.50 458.69 1134.93 458.57 1121.74
  C 458.50 1114.63 460.14 1106.44 453.35 1101.66
  C 446.44 1096.80 436.54 1098.22 428.53 1098.25
  C 419.27 1098.28 421.35 1090.11 421.58 1082.33
  C 421.78 1075.25 436.87 1077.50 441.68 1077.49
  C 454.59 1077.46 441.47 1096.43 456.79 1091.12
  C 457.91 1090.73 458.48 1089.95 458.49 1088.77
  C 458.54 1085.32 458.89 1081.19 457.91 1077.96
  C 456.04 1071.78 449.13 1068.49 442.76 1068.45
  C 431.08 1068.37 411.55 1065.25 411.09 1082.99
  C 410.86 1091.80 409.83 1100.68 417.55 1104.92
  C 423.60 1108.26 436.09 1107.34 443.72 1107.24
  C 444.84 1107.23 445.74 1107.66 446.43 1108.55"
/>
<path stroke="#f4bb97" vector-effect="non-scaling-stroke" d="
  M 848.57 1128.20
  C 847.81 1127.01 847.24 1125.99 847.24 1124.49
  C 847.27 1111.65 847.63 1098.63 847.09 1085.81
  C 846.88 1080.72 848.07 1077.54 853.76 1077.51
  C 857.59 1077.48 861.42 1077.49 865.25 1077.52
  C 873.53 1077.59 871.97 1083.92 872.24 1089.76
  C 872.26 1090.29 872.35 1090.70 872.49 1090.84
  C 874.53 1092.90 877.01 1093.41 879.92 1092.37
  C 881.32 1091.88 882.11 1090.87 882.30 1089.36
  C 883.76 1077.57 879.67 1068.51 866.50 1068.46
  C 859.03 1068.44 848.49 1067.13 842.07 1071.59
  C 836.48 1075.46 836.89 1079.86 836.65 1087.19
  C 836.31 1097.35 836.88 1107.57 836.60 1117.77
  C 836.49 1121.57 836.29 1127.71 838.04 1130.93
  C 843.05 1140.12 852.95 1138.95 863.37 1138.78
  C 869.45 1138.68 873.64 1138.07 875.95 1136.95
  C 886.18 1132.00 883.60 1116.79 883.36 1107.31
  C 883.20 1100.71 872.94 1100.28 873.00 1108.09
  C 873.03 1113.46 872.98 1118.82 872.85 1124.17
  C 872.74 1128.43 870.43 1129.60 866.42 1129.85
  C 861.18 1130.18 855.97 1130.09 850.79 1129.57
  C 849.88 1129.48 849.06 1128.97 848.57 1128.20"
/>
<path stroke="#f4bb97" vector-effect="non-scaling-stroke" d="
  M 1020.24 1102.20
  C 1020.24 1098.22 1017.01 1094.99 1013.03 1094.99
  C 1009.05 1094.99 1005.82 1098.22 1005.82 1102.20
  C 1005.82 1106.18 1009.05 1109.41 1013.03 1109.41
  C 1017.01 1109.41 1020.24 1106.18 1020.24 1102.20"
/>
<path stroke="#f4bb97" vector-effect="non-scaling-stroke" d="
  M 868.60 1105.87
  C 868.60 1101.89 865.37 1098.66 861.39 1098.66
  C 857.41 1098.66 854.18 1101.89 854.18 1105.87
  C 854.18 1109.85 857.41 1113.08 861.39 1113.08
  C 865.37 1113.08 868.60 1109.85 868.60 1105.87"
/>
<path stroke="#f4bb97" vector-effect="non-scaling-stroke" d="
  M 430.10 1024.42
  C 435.06 1028.28 443.41 1028.02 447.45 1023.18
  C 454.77 1014.41 446.34 999.96 441.27 990.87
  C 441.13 990.63 440.82 990.54 440.57 990.66
  C 437.74 992.06 434.93 993.96 432.12 996.35
  C 424.01 1003.25 420.53 1016.96 430.10 1024.42"
/>
<path stroke="#f4bb97" vector-effect="non-scaling-stroke" d="
  M 619.92 1013.25
  C 620.20 1020.60 625.88 1028.11 633.82 1026.94
  C 642.02 1025.72 646.04 1017.08 646.99 1009.79
  C 648.18 1000.64 649.30 991.47 650.36 982.26
  C 650.40 981.97 650.24 981.69 649.98 981.56
  C 647.44 980.39 645.38 979.76 643.80 979.67
  C 624.55 978.65 619.36 998.25 619.92 1013.25"
/>
<path stroke="#f4bb97" vector-effect="non-scaling-stroke" d="
  M 538.12 1012.00
  C 538.24 1029.14 556.72 1032.41 563.40 1017.03
  C 564.33 1014.90 565.08 1011.30 565.65 1006.23
  C 566.54 998.24 567.50 990.23 568.51 982.20
  C 568.55 981.91 568.39 981.62 568.11 981.51
  C 545.87 972.76 538.00 995.22 538.12 1012.00"
/>
<path stroke="#f4bb97" vector-effect="non-scaling-stroke" d="
  M 778.41 1020.80
  C 783.35 1028.72 792.54 1029.14 798.50 1021.67
  C 801.25 1018.22 802.75 1015.16 803.01 1012.48
  C 803.99 1002.37 805.13 992.20 806.42 981.97
  C 806.45 981.68 806.28 981.41 806.01 981.32
  C 793.94 977.25 785.27 980.65 780.02 991.54
  C 776.50 998.82 774.25 1014.13 778.41 1020.80"
/>
<path stroke="#f4bb97" vector-effect="non-scaling-stroke" d="
  M 924.49 1026.09
  C 925.62 1027.36 926.95 1027.65 928.50 1026.96
  C 932.50 1025.17 933.88 1021.77 934.11 1017.38
  C 934.54 1009.01 931.77 1001.75 925.78 995.59
  C 925.55 995.34 925.40 995.39 925.35 995.72
  C 924.22 1003.71 923.64 1011.72 922.63 1019.68
  C 922.32 1022.20 922.94 1024.34 924.49 1026.09"
/>
<path stroke="#f4bb97" vector-effect="non-scaling-stroke" d="
  M 860.70 1020.73
  C 859.81 1028.57 869.59 1029.43 871.59 1021.89
  C 873.86 1013.33 869.83 1005.77 863.91 999.82
  C 863.56 999.47 863.36 999.54 863.30 1000.02
  C 862.34 1007.00 861.47 1013.90 860.70 1020.73"
/>
</g>
<path fill="#ffffff" d="
  M 1447.81 723.99
  C 1447.81 1123.74 1123.75 1447.80 724.00 1447.80
  C 324.25 1447.80 0.19 1123.74 0.19 723.99
  C 0.19 324.24 324.25 0.18 724.00 0.18
  C 1123.75 0.18 1447.81 324.24 1447.81 723.99
  Z
  M 1437.43 723.99
  C 1437.43 329.97 1118.02 10.56 724.00 10.56
  C 329.98 10.56 10.57 329.97 10.57 723.99
  C 10.57 1118.01 329.98 1437.42 724.00 1437.42
  C 1118.02 1437.42 1437.43 1118.01 1437.43 723.99
  Z"
/>
<path fill="#ffffff" d="
  M 1418.85 723.99
  C 1418.85 1107.75 1107.76 1418.84 724.00 1418.84
  C 340.24 1418.84 29.15 1107.75 29.15 723.99
  C 29.15 340.23 340.24 29.14 724.00 29.14
  C 1107.76 29.14 1418.85 340.23 1418.85 723.99
  Z
  M 544.17 486.03
  C 544.07 486.09 543.93 486.09 543.83 486.03
  L 474.95 446.52
  C 474.71 446.39 474.71 446.05 474.95 445.92
  L 711.98 309.11
  C 712.21 308.98 712.50 309.15 712.50 309.42
  L 712.50 388.42
  C 712.50 388.54 712.43 388.66 712.33 388.72
  L 544.17 486.03
  Z
  M 735.84 311.23
  C 735.71 311.72 735.65 312.23 735.66 312.78
  C 736.01 337.81 736.10 362.91 735.94 388.08
  C 735.94 388.40 736.12 388.70 736.40 388.87
  L 903.76 485.73
  C 904.07 485.91 904.42 485.93 904.71 485.80
  C 906.24 485.10 907.74 484.33 909.21 483.48
  C 930.43 471.18 951.64 458.91 972.84 446.68
  C 973.20 446.47 973.16 445.94 972.77 445.71
  L 736.75 309.24
  C 736.44 309.06 736.08 309.09 735.91 309.31
  C 735.68 309.61 735.63 309.94 735.76 310.31
  C 735.88 310.65 735.91 310.97 735.84 311.23
  Z
  M 724.32 798.61
  C 724.15 798.71 723.93 798.71 723.76 798.61
  L 555.77 701.40
  C 555.60 701.30 555.50 701.12 555.50 700.92
  L 555.50 506.47
  C 555.50 506.27 555.60 506.09 555.77 505.99
  L 723.72 408.79
  C 723.89 408.69 724.11 408.69 724.28 408.79
  L 892.23 505.97
  C 892.40 506.07 892.50 506.25 892.50 506.45
  L 892.50 700.95
  C 892.50 701.15 892.40 701.33 892.23 701.43
  L 724.32 798.61
  Z
  M 512.02 712.65
  C 517.37 709.49 524.96 705.49 531.33 701.52
  C 531.75 701.26 532.00 700.78 532.00 700.25
  L 532.00 506.75
  C 532.00 506.40 531.83 506.09 531.56 505.94
  L 463.38 467.08
  C 462.91 466.81 462.69 466.95 462.71 467.48
  C 463.19 480.84 462.81 498.39 462.84 507.49
  C 463.08 573.13 463.09 638.77 462.87 704.41
  C 462.83 714.88 463.12 728.47 462.98 740.51
  C 462.97 740.84 463.12 740.93 463.41 740.76
  C 479.72 731.53 495.92 722.16 512.02 712.65
  Z
  M 918.39 504.86
  C 917.75 505.23 917.10 505.63 916.44 506.05
  C 916.17 506.22 916.01 506.48 916.01 506.75
  L 916.00 700.75
  C 916.00 701.04 916.18 701.33 916.47 701.50
  L 984.65 741.37
  C 985.06 741.60 985.27 741.48 985.27 741.00
  L 985.21 467.50
  C 985.21 467.27 984.94 467.15 984.71 467.27
  C 962.49 479.57 940.38 492.10 918.39 504.86
  Z
  M 474.98 762.04
  L 711.51 898.28
  C 711.72 898.40 711.97 898.11 711.97 897.75
  L 712.09 819.75
  C 712.09 819.36 711.99 819.04 711.83 818.91
  C 711.06 818.28 709.80 817.47 708.05 816.46
  C 653.38 784.81 598.70 753.16 544.01 721.52
  C 543.74 721.37 543.38 721.38 543.06 721.57
  L 474.93 761.43
  C 474.71 761.56 474.73 761.90 474.98 762.04
  Z
  M 903.87 721.36
  C 903.98 721.30 904.12 721.30 904.23 721.37
  L 973.08 761.42
  C 973.32 761.56 973.32 761.90 973.08 762.04
  L 736.04 898.32
  C 735.80 898.46 735.50 898.28 735.50 898.01
  L 735.50 819.00
  C 735.50 818.87 735.57 818.75 735.68 818.69
  L 903.87 721.36
  Z
  M 453.95 940.51
  C 470.58 933.75 476.52 952.60 467.86 963.68
  C 467.43 964.23 467.56 964.50 468.25 964.50
  L 478.00 964.50
  C 478.33 964.50 478.62 964.33 478.76 964.06
  C 495.40 931.98 459.74 915.76 436.50 932.20
  C 418.72 944.78 427.56 963.82 435.63 979.25
  C 435.92 979.81 435.70 980.50 435.14 980.78
  C 421.52 987.65 409.80 999.88 411.36 1016.07
  C 413.63 1039.78 439.65 1046.99 457.71 1035.31
  C 477.30 1022.63 472.57 1000.72 462.79 983.23
  C 458.09 974.82 453.76 966.22 449.79 957.45
  C 447.21 951.75 446.94 943.35 453.95 940.51
  Z
  M 514.54 938.16
  C 514.54 931.64 509.25 926.35 502.73 926.35
  C 496.21 926.35 490.92 931.64 490.92 938.16
  C 490.92 944.68 496.21 949.97 502.73 949.97
  C 509.25 949.97 514.54 944.68 514.54 938.16
  Z
  M 906.55 982.43
  C 905.65 985.32 905.31 988.26 905.54 991.25
  C 904.71 1000.31 903.71 1009.34 902.52 1018.35
  C 898.64 1047.76 936.90 1046.32 942.79 1025.99
  C 947.64 1009.24 939.99 993.99 927.13 983.55
  C 926.86 983.33 926.72 983.02 926.78 982.76
  L 927.33 980.01
  C 927.39 979.71 927.67 979.50 928.00 979.50
  L 950.00 979.50
  C 950.41 979.50 950.75 979.28 950.75 979.00
  L 950.75 968.50
  C 950.75 968.22 950.41 968.00 950.00 968.00
  L 929.25 968.00
  C 928.99 968.00 928.80 967.75 928.83 967.47
  C 929.94 957.88 931.10 948.30 932.31 938.72
  C 933.94 925.74 923.23 924.46 913.67 927.14
  C 913.36 927.22 913.14 927.49 913.10 927.82
  L 908.40 967.24
  C 908.35 967.66 907.96 967.98 907.50 967.99
  L 895.69 968.03
  C 895.40 968.03 895.14 968.26 895.08 968.57
  L 894.19 972.68
  C 894.09 973.11 893.85 973.11 893.48 972.67
  C 886.65 964.67 873.38 967.82 866.80 974.16
  C 866.57 974.39 866.41 974.34 866.34 974.03
  C 864.36 965.97 852.65 967.48 846.55 969.64
  C 846.26 969.74 846.05 970.00 846.02 970.31
  C 844.04 989.35 842.63 1001.49 841.79 1006.74
  C 840.81 1012.88 835.33 1025.03 828.33 1026.79
  C 820.39 1028.77 822.42 1017.70 822.71 1013.51
  C 823.09 1008.27 824.19 1002.74 824.77 997.31
  C 825.74 988.11 827.36 979.03 828.19 969.79
  C 828.22 969.50 828.07 969.23 827.82 969.15
  C 821.97 967.30 816.29 967.66 810.80 970.23
  C 810.46 970.39 810.09 970.42 809.78 970.32
  C 777.35 959.81 749.66 985.69 756.01 1019.07
  C 756.07 1019.40 756.01 1019.73 755.85 1020.00
  C 751.94 1026.65 740.07 1032.22 741.70 1017.99
  C 742.59 1010.30 743.62 1002.63 744.81 994.96
  C 745.70 989.17 745.90 985.00 745.41 982.47
  C 742.15 965.76 718.68 964.60 708.01 973.81
  C 706.72 974.92 706.21 974.64 706.48 972.95
  C 708.62 959.87 710.29 947.24 711.50 935.06
  C 712.55 924.35 698.64 925.45 692.19 927.06
  C 691.90 927.13 691.69 927.37 691.66 927.66
  L 689.21 948.50
  C 688.54 951.13 688.24 953.79 688.29 956.50
  L 686.29 973.00
  L 685.46 982.00
  L 685.21 984.00
  L 684.29 989.25
  C 683.49 997.93 682.54 1006.59 681.45 1015.22
  C 681.14 1017.64 680.49 1019.56 679.48 1020.97
  C 676.08 1025.76 664.93 1032.19 666.15 1019.89
  C 667.85 1002.64 669.90 985.42 672.29 968.25
  C 673.00 966.41 673.23 964.49 672.96 962.50
  L 677.51 928.04
  C 677.55 927.75 677.37 927.47 677.09 927.38
  C 671.27 925.45 657.32 925.37 656.29 933.83
  C 654.86 945.61 653.44 957.41 652.03 969.22
  C 652.00 969.48 651.74 969.65 651.48 969.58
  C 619.15 961.30 595.55 985.33 599.44 1017.50
  C 599.47 1017.78 599.38 1018.11 599.19 1018.45
  C 597.60 1021.23 595.53 1023.57 592.96 1025.47
  C 591.49 1026.56 589.97 1027.06 588.41 1026.99
  C 585.36 1026.84 583.96 1025.01 584.22 1021.49
  C 584.90 1012.48 585.83 1003.48 587.00 994.49
  C 589.89 972.41 592.75 950.30 595.58 928.16
  C 595.62 927.87 595.46 927.59 595.19 927.48
  C 588.85 925.05 579.70 925.69 574.98 931.33
  C 574.75 931.60 574.61 931.94 574.56 932.31
  L 570.16 969.24
  C 570.13 969.49 569.89 969.66 569.65 969.60
  C 536.71 961.13 512.52 986.50 517.83 1019.19
  C 517.89 1019.52 517.84 1019.85 517.69 1020.14
  C 513.60 1027.92 501.22 1031.48 503.02 1017.75
  C 505.13 1001.67 507.21 985.57 509.28 969.46
  C 509.30 969.26 509.18 969.07 508.98 969.02
  C 502.86 967.54 493.02 967.77 488.54 973.10
  C 488.34 973.34 488.21 973.65 488.16 973.98
  C 486.58 987.05 485.06 1000.13 483.61 1013.21
  C 482.11 1026.74 482.16 1037.86 497.45 1040.52
  C 506.16 1042.03 514.31 1039.20 520.18 1032.63
  C 520.93 1031.79 521.73 1031.01 522.60 1030.29
  C 522.81 1030.11 523.13 1030.13 523.31 1030.34
  C 534.50 1043.14 552.47 1044.62 564.72 1031.88
  C 565.13 1031.45 565.84 1031.55 566.12 1032.07
  C 568.93 1037.26 574.53 1039.96 580.49 1040.34
  C 590.09 1040.96 597.78 1037.15 603.56 1028.92
  C 603.70 1028.72 604.00 1028.72 604.15 1028.91
  C 614.68 1042.60 635.24 1045.66 646.97 1031.55
  C 647.12 1031.36 647.41 1031.38 647.54 1031.59
  C 654.19 1042.47 668.35 1042.61 678.08 1036.30
  C 678.79 1035.84 679.10 1035.99 679.01 1036.74
  L 678.70 1039.25
  C 678.67 1039.52 678.93 1039.75 679.25 1039.75
  L 698.00 1039.75
  C 698.22 1039.75 698.42 1039.48 698.47 1039.13
  C 700.22 1025.21 701.99 1011.29 703.78 997.38
  C 704.81 989.44 709.38 977.92 719.68 980.78
  C 727.11 982.85 725.59 990.60 724.86 997.26
  C 724.17 1003.63 723.48 1009.98 722.79 1016.33
  C 722.24 1021.39 722.27 1025.14 722.88 1027.59
  C 725.40 1037.67 734.59 1041.67 744.48 1040.02
  C 750.85 1038.95 756.17 1035.64 760.45 1030.09
  C 760.61 1029.88 760.91 1029.87 761.08 1030.06
  C 772.58 1042.96 790.78 1045.02 803.43 1031.55
  C 803.59 1031.37 803.89 1031.41 804.02 1031.62
  C 812.96 1046.37 833.21 1041.30 841.75 1029.04
  C 841.94 1028.77 842.09 1028.79 842.20 1029.10
  C 844.98 1036.88 850.84 1040.41 858.78 1040.66
  C 870.96 1041.05 880.23 1033.53 881.70 1021.67
  C 883.38 1008.04 876.53 997.61 866.32 989.09
  C 866.09 988.90 866.01 988.58 866.12 988.30
  C 869.56 979.87 882.17 976.43 881.48 990.04
  C 881.46 990.32 881.69 990.56 881.98 990.57
  C 889.39 990.65 893.99 987.17 895.76 980.13
  C 895.85 979.76 896.06 979.50 896.25 979.50
  L 906.25 979.50
  C 906.50 979.50 906.70 979.75 906.68 980.04
  L 906.55 982.43
  Z
  M 975.64 974.16
  C 977.59 961.23 979.29 948.10 980.73 934.75
  C 981.84 924.45 967.44 925.42 961.31 927.25
  C 961.04 927.33 960.84 927.63 960.80 928.01
  L 947.97 1038.50
  C 947.89 1039.16 948.37 1039.75 949.00 1039.75
  L 967.25 1039.75
  C 967.45 1039.75 967.64 1039.48 967.69 1039.13
  C 969.50 1024.34 971.37 1009.57 973.30 994.80
  C 974.00 989.44 978.53 981.02 984.26 980.52
  C 994.51 979.62 995.18 986.48 994.32 994.71
  C 993.46 1002.96 992.60 1011.18 991.74 1019.38
  C 990.35 1032.56 998.42 1041.53 1011.81 1040.30
  C 1025.59 1039.03 1032.84 1027.69 1036.50 1015.60
  C 1036.84 1014.47 1036.75 1013.39 1036.26 1012.75
  L 1031.39 1006.38
  C 1031.13 1006.04 1030.92 1006.14 1030.77 1006.67
  C 1028.71 1013.77 1024.66 1025.09 1016.59 1026.77
  C 1010.40 1028.07 1010.57 1020.93 1011.07 1016.67
  C 1011.97 1009.07 1013.00 1001.48 1014.17 993.91
  C 1015.56 984.89 1015.55 977.79 1008.32 972.40
  C 998.94 965.42 985.43 967.11 976.32 974.55
  C 975.76 975.00 975.53 974.87 975.64 974.16
  Z
  M 575.49 1072.39
  C 575.49 1070.11 573.64 1068.26 571.36 1068.26
  L 569.16 1068.26
  C 566.88 1068.26 565.03 1070.11 565.03 1072.39
  L 565.03 1135.03
  C 565.03 1137.31 566.88 1139.16 569.16 1139.16
  L 571.36 1139.16
  C 573.64 1139.16 575.49 1137.31 575.49 1135.03
  L 575.49 1072.39
  Z
  M 696.58 1091.27
  C 702.05 1105.40 707.62 1119.40 713.27 1133.25
  C 715.02 1137.55 718.12 1139.48 722.56 1139.03
  C 727.75 1138.50 731.28 1137.65 731.27 1131.38
  C 731.24 1112.09 731.23 1092.78 731.26 1073.45
  C 731.27 1068.45 727.74 1067.20 723.34 1068.71
  C 721.78 1069.24 721.00 1070.34 721.00 1072.00
  L 721.00 1119.00
  C 721.00 1119.32 720.89 1119.62 720.70 1119.84
  C 719.53 1121.18 718.38 1120.32 717.83 1118.94
  C 711.90 1103.99 705.94 1089.06 699.94 1074.14
  C 697.22 1067.38 689.21 1066.61 683.93 1069.89
  C 682.48 1070.79 681.76 1072.10 681.76 1073.82
  L 681.75 1135.25
  C 681.75 1136.92 682.59 1138.03 684.27 1138.59
  C 689.75 1140.41 692.27 1138.35 692.26 1132.81
  C 692.25 1117.96 692.24 1103.10 692.25 1088.25
  C 692.25 1087.84 692.38 1087.50 692.58 1087.38
  C 693.56 1086.79 694.38 1086.90 695.05 1087.69
  C 695.22 1087.88 695.73 1089.08 696.58 1091.27
  Z
  M 999.57 1072.11
  C 999.57 1070.00 997.86 1068.29 995.75 1068.29
  L 993.07 1068.29
  C 990.96 1068.29 989.25 1070.00 989.25 1072.11
  L 989.25 1135.29
  C 989.25 1137.40 990.96 1139.11 993.07 1139.11
  L 995.75 1139.11
  C 997.86 1139.11 999.57 1137.40 999.57 1135.29
  L 999.57 1072.11
  Z
  M 1036.99 1072.43
  C 1036.99 1070.12 1035.11 1068.24 1032.80 1068.24
  L 1030.70 1068.24
  C 1028.39 1068.24 1026.51 1070.12 1026.51 1072.43
  L 1026.51 1134.97
  C 1026.51 1137.28 1028.39 1139.16 1030.70 1139.16
  L 1032.80 1139.16
  C 1035.11 1139.16 1036.99 1137.28 1036.99 1134.97
  L 1036.99 1072.43
  Z
  M 446.43 1108.55
  C 449.03 1111.92 450.33 1129.73 443.51 1129.74
  C 438.37 1129.75 433.22 1129.76 428.07 1129.75
  C 415.28 1129.74 427.30 1115.55 416.74 1114.81
  C 413.16 1114.56 411.33 1115.34 411.06 1119.24
  C 409.56 1140.61 424.24 1139.07 440.22 1138.74
  C 452.49 1138.50 458.69 1134.93 458.57 1121.74
  C 458.50 1114.63 460.14 1106.44 453.35 1101.66
  C 446.44 1096.80 436.54 1098.22 428.53 1098.25
  C 419.27 1098.28 421.35 1090.11 421.58 1082.33
  C 421.78 1075.25 436.87 1077.50 441.68 1077.49
  C 454.59 1077.46 441.47 1096.43 456.79 1091.12
  C 457.91 1090.73 458.48 1089.95 458.49 1088.77
  C 458.54 1085.32 458.89 1081.19 457.91 1077.96
  C 456.04 1071.78 449.13 1068.49 442.76 1068.45
  C 431.08 1068.37 411.55 1065.25 411.09 1082.99
  C 410.86 1091.80 409.83 1100.68 417.55 1104.92
  C 423.60 1108.26 436.09 1107.34 443.72 1107.24
  C 444.84 1107.23 445.74 1107.66 446.43 1108.55
  Z
  M 848.57 1128.20
  C 847.81 1127.01 847.24 1125.99 847.24 1124.49
  C 847.27 1111.65 847.63 1098.63 847.09 1085.81
  C 846.88 1080.72 848.07 1077.54 853.76 1077.51
  C 857.59 1077.48 861.42 1077.49 865.25 1077.52
  C 873.53 1077.59 871.97 1083.92 872.24 1089.76
  C 872.26 1090.29 872.35 1090.70 872.49 1090.84
  C 874.53 1092.90 877.01 1093.41 879.92 1092.37
  C 881.32 1091.88 882.11 1090.87 882.30 1089.36
  C 883.76 1077.57 879.67 1068.51 866.50 1068.46
  C 859.03 1068.44 848.49 1067.13 842.07 1071.59
  C 836.48 1075.46 836.89 1079.86 836.65 1087.19
  C 836.31 1097.35 836.88 1107.57 836.60 1117.77
  C 836.49 1121.57 836.29 1127.71 838.04 1130.93
  C 843.05 1140.12 852.95 1138.95 863.37 1138.78
  C 869.45 1138.68 873.64 1138.07 875.95 1136.95
  C 886.18 1132.00 883.60 1116.79 883.36 1107.31
  C 883.20 1100.71 872.94 1100.28 873.00 1108.09
  C 873.03 1113.46 872.98 1118.82 872.85 1124.17
  C 872.74 1128.43 870.43 1129.60 866.42 1129.85
  C 861.18 1130.18 855.97 1130.09 850.79 1129.57
  C 849.88 1129.48 849.06 1128.97 848.57 1128.20
  Z
  M 1020.24 1102.20
  C 1020.24 1098.22 1017.01 1094.99 1013.03 1094.99
  C 1009.05 1094.99 1005.82 1098.22 1005.82 1102.20
  C 1005.82 1106.18 1009.05 1109.41 1013.03 1109.41
  C 1017.01 1109.41 1020.24 1106.18 1020.24 1102.20
  Z
  M 868.60 1105.87
  C 868.60 1101.89 865.37 1098.66 861.39 1098.66
  C 857.41 1098.66 854.18 1101.89 854.18 1105.87
  C 854.18 1109.85 857.41 1113.08 861.39 1113.08
  C 865.37 1113.08 868.60 1109.85 868.60 1105.87
  Z"
/>
<path fill="#e8772e" d="
  M 474.95 445.92
  L 711.98 309.11
  C 712.21 308.98 712.50 309.15 712.50 309.42
  L 712.50 388.42
  C 712.50 388.54 712.43 388.66 712.33 388.72
  L 544.17 486.03
  C 544.07 486.09 543.93 486.09 543.83 486.03
  L 474.95 446.52
  C 474.71 446.39 474.71 446.05 474.95 445.92
  Z"
/>
<path fill="#e8772e" d="
  M 735.76 310.31
  C 735.63 309.94 735.68 309.61 735.91 309.31
  C 736.08 309.09 736.44 309.06 736.75 309.24
  L 972.77 445.71
  C 973.16 445.94 973.20 446.47 972.84 446.68
  C 951.64 458.91 930.43 471.18 909.21 483.48
  C 907.74 484.33 906.24 485.10 904.71 485.80
  C 904.42 485.93 904.07 485.91 903.76 485.73
  L 736.40 388.87
  C 736.12 388.70 735.94 388.40 735.94 388.08
  C 736.10 362.91 736.01 337.81 735.66 312.78
  C 735.65 312.23 735.71 311.72 735.84 311.23
  C 735.91 310.97 735.88 310.65 735.76 310.31
  Z"
/>
<path fill="#e8772e" d="
  M 555.50 700.92
  L 555.50 506.47
  C 555.50 506.27 555.60 506.09 555.77 505.99
  L 723.72 408.79
  C 723.89 408.69 724.11 408.69 724.28 408.79
  L 892.23 505.97
  C 892.40 506.07 892.50 506.25 892.50 506.45
  L 892.50 700.95
  C 892.50 701.15 892.40 701.33 892.23 701.43
  L 724.32 798.61
  C 724.15 798.71 723.93 798.71 723.76 798.61
  L 555.77 701.40
  C 555.60 701.30 555.50 701.12 555.50 700.92
  Z"
/>
<path fill="#e8772e" d="
  M 512.02 712.65
  C 495.92 722.16 479.72 731.53 463.41 740.76
  C 463.12 740.93 462.97 740.84 462.98 740.51
  C 463.12 728.47 462.83 714.88 462.87 704.41
  C 463.09 638.77 463.08 573.13 462.84 507.49
  C 462.81 498.39 463.19 480.84 462.71 467.48
  C 462.69 466.95 462.91 466.81 463.38 467.08
  L 531.56 505.94
  C 531.83 506.09 532.00 506.40 532.00 506.75
  L 532.00 700.25
  C 532.00 700.78 531.75 701.26 531.33 701.52
  C 524.96 705.49 517.37 709.49 512.02 712.65
  Z"
/>
<path fill="#e8772e" d="
  M 918.39 504.86
  C 940.38 492.10 962.49 479.57 984.71 467.27
  C 984.94 467.15 985.21 467.27 985.21 467.50
  L 985.27 741.00
  C 985.27 741.48 985.06 741.60 984.65 741.37
  L 916.47 701.50
  C 916.18 701.33 916.00 701.04 916.00 700.75
  L 916.01 506.75
  C 916.01 506.48 916.17 506.22 916.44 506.05
  C 917.10 505.63 917.75 505.23 918.39 504.86
  Z"
/>
<path fill="#e8772e" d="
  M 474.98 762.04
  C 474.73 761.90 474.71 761.56 474.93 761.43
  L 543.06 721.57
  C 543.38 721.38 543.74 721.37 544.01 721.52
  C 598.70 753.16 653.38 784.81 708.05 816.46
  C 709.80 817.47 711.06 818.28 711.83 818.91
  C 711.99 819.04 712.09 819.36 712.09 819.75
  L 711.97 897.75
  C 711.97 898.11 711.72 898.40 711.51 898.28
  L 474.98 762.04
  Z"
/>
<path fill="#e8772e" d="
  M 973.08 762.04
  L 736.04 898.32
  C 735.80 898.46 735.50 898.28 735.50 898.01
  L 735.50 819.00
  C 735.50 818.87 735.57 818.75 735.68 818.69
  L 903.87 721.36
  C 903.98 721.30 904.12 721.30 904.23 721.37
  L 973.08 761.42
  C 973.32 761.56 973.32 761.90 973.08 762.04
  Z"
/>
<path fill="#e8772e" d="
  M 467.86 963.68
  C 476.52 952.60 470.58 933.75 453.95 940.51
  C 446.94 943.35 447.21 951.75 449.79 957.45
  C 453.76 966.22 458.09 974.82 462.79 983.23
  C 472.57 1000.72 477.30 1022.63 457.71 1035.31
  C 439.65 1046.99 413.63 1039.78 411.36 1016.07
  C 409.80 999.88 421.52 987.65 435.14 980.78
  C 435.70 980.50 435.92 979.81 435.63 979.25
  C 427.56 963.82 418.72 944.78 436.50 932.20
  C 459.74 915.76 495.40 931.98 478.76 964.06
  C 478.62 964.33 478.33 964.50 478.00 964.50
  L 468.25 964.50
  C 467.56 964.50 467.43 964.23 467.86 963.68
  Z
  M 430.10 1024.42
  C 435.06 1028.28 443.41 1028.02 447.45 1023.18
  C 454.77 1014.41 446.34 999.96 441.27 990.87
  C 441.13 990.63 440.82 990.54 440.57 990.66
  C 437.74 992.06 434.93 993.96 432.12 996.35
  C 424.01 1003.25 420.53 1016.96 430.10 1024.42
  Z"
/>
<circle fill="#e8772e" cx="502.73" cy="938.16" r="11.81"/>
<path fill="#e8772e" d="
  M 672.96 962.50
  L 672.29 968.25
  C 669.90 985.42 667.85 1002.64 666.15 1019.89
  C 664.93 1032.19 676.08 1025.76 679.48 1020.97
  C 680.49 1019.56 681.14 1017.64 681.45 1015.22
  C 682.54 1006.59 683.49 997.93 684.29 989.25
  C 685.35 987.69 685.66 985.94 685.21 984.00
  L 685.46 982.00
  C 686.19 979.04 686.47 976.04 686.29 973.00
  L 688.29 956.50
  C 689.09 953.89 689.40 951.23 689.21 948.50
  L 691.66 927.66
  C 691.69 927.37 691.90 927.13 692.19 927.06
  C 698.64 925.45 712.55 924.35 711.50 935.06
  C 710.29 947.24 708.62 959.87 706.48 972.95
  C 706.21 974.64 706.72 974.92 708.01 973.81
  C 718.68 964.60 742.15 965.76 745.41 982.47
  C 745.90 985.00 745.70 989.17 744.81 994.96
  C 743.62 1002.63 742.59 1010.30 741.70 1017.99
  C 740.07 1032.22 751.94 1026.65 755.85 1020.00
  C 756.01 1019.73 756.07 1019.40 756.01 1019.07
  C 749.66 985.69 777.35 959.81 809.78 970.32
  C 810.09 970.42 810.46 970.39 810.80 970.23
  C 816.29 967.66 821.97 967.30 827.82 969.15
  C 828.07 969.23 828.22 969.50 828.19 969.79
  C 827.36 979.03 825.74 988.11 824.77 997.31
  C 824.19 1002.74 823.09 1008.27 822.71 1013.51
  C 822.42 1017.70 820.39 1028.77 828.33 1026.79
  C 835.33 1025.03 840.81 1012.88 841.79 1006.74
  C 842.63 1001.49 844.04 989.35 846.02 970.31
  C 846.05 970.00 846.26 969.74 846.55 969.64
  C 852.65 967.48 864.36 965.97 866.34 974.03
  C 866.41 974.34 866.57 974.39 866.80 974.16
  C 873.38 967.82 886.65 964.67 893.48 972.67
  C 893.85 973.11 894.09 973.11 894.19 972.68
  L 895.08 968.57
  C 895.14 968.26 895.40 968.03 895.69 968.03
  L 907.50 967.99
  C 907.96 967.98 908.35 967.66 908.40 967.24
  L 913.10 927.82
  C 913.14 927.49 913.36 927.22 913.67 927.14
  C 923.23 924.46 933.94 925.74 932.31 938.72
  C 931.10 948.30 929.94 957.88 928.83 967.47
  C 928.80 967.75 928.99 968.00 929.25 968.00
  L 950.00 968.00
  C 950.41 968.00 950.75 968.22 950.75 968.50
  L 950.75 979.00
  C 950.75 979.28 950.41 979.50 950.00 979.50
  L 928.00 979.50
  C 927.67 979.50 927.39 979.71 927.33 980.01
  L 926.78 982.76
  C 926.72 983.02 926.86 983.33 927.13 983.55
  C 939.99 993.99 947.64 1009.24 942.79 1025.99
  C 936.90 1046.32 898.64 1047.76 902.52 1018.35
  C 903.71 1009.34 904.71 1000.31 905.54 991.25
  C 906.65 988.42 906.98 985.48 906.55 982.43
  L 906.68 980.04
  C 906.70 979.75 906.50 979.50 906.25 979.50
  L 896.25 979.50
  C 896.06 979.50 895.85 979.76 895.76 980.13
  C 893.99 987.17 889.39 990.65 881.98 990.57
  C 881.69 990.56 881.46 990.32 881.48 990.04
  C 882.17 976.43 869.56 979.87 866.12 988.30
  C 866.01 988.58 866.09 988.90 866.32 989.09
  C 876.53 997.61 883.38 1008.04 881.70 1021.67
  C 880.23 1033.53 870.96 1041.05 858.78 1040.66
  C 850.84 1040.41 844.98 1036.88 842.20 1029.10
  C 842.09 1028.79 841.94 1028.77 841.75 1029.04
  C 833.21 1041.30 812.96 1046.37 804.02 1031.62
  C 803.89 1031.41 803.59 1031.37 803.43 1031.55
  C 790.78 1045.02 772.58 1042.96 761.08 1030.06
  C 760.91 1029.87 760.61 1029.88 760.45 1030.09
  C 756.17 1035.64 750.85 1038.95 744.48 1040.02
  C 734.59 1041.67 725.40 1037.67 722.88 1027.59
  C 722.27 1025.14 722.24 1021.39 722.79 1016.33
  C 723.48 1009.98 724.17 1003.63 724.86 997.26
  C 725.59 990.60 727.11 982.85 719.68 980.78
  C 709.38 977.92 704.81 989.44 703.78 997.38
  C 701.99 1011.29 700.22 1025.21 698.47 1039.13
  C 698.42 1039.48 698.22 1039.75 698.00 1039.75
  L 679.25 1039.75
  C 678.93 1039.75 678.67 1039.52 678.70 1039.25
  L 679.01 1036.74
  C 679.10 1035.99 678.79 1035.84 678.08 1036.30
  C 668.35 1042.61 654.19 1042.47 647.54 1031.59
  C 647.41 1031.38 647.12 1031.36 646.97 1031.55
  C 635.24 1045.66 614.68 1042.60 604.15 1028.91
  C 604.00 1028.72 603.70 1028.72 603.56 1028.92
  C 597.78 1037.15 590.09 1040.96 580.49 1040.34
  C 574.53 1039.96 568.93 1037.26 566.12 1032.07
  C 565.84 1031.55 565.13 1031.45 564.72 1031.88
  C 552.47 1044.62 534.50 1043.14 523.31 1030.34
  C 523.13 1030.13 522.81 1030.11 522.60 1030.29
  C 521.73 1031.01 520.93 1031.79 520.18 1032.63
  C 514.31 1039.20 506.16 1042.03 497.45 1040.52
  C 482.16 1037.86 482.11 1026.74 483.61 1013.21
  C 485.06 1000.13 486.58 987.05 488.16 973.98
  C 488.21 973.65 488.34 973.34 488.54 973.10
  C 493.02 967.77 502.86 967.54 508.98 969.02
  C 509.18 969.07 509.30 969.26 509.28 969.46
  C 507.21 985.57 505.13 1001.67 503.02 1017.75
  C 501.22 1031.48 513.60 1027.92 517.69 1020.14
  C 517.84 1019.85 517.89 1019.52 517.83 1019.19
  C 512.52 986.50 536.71 961.13 569.65 969.60
  C 569.89 969.66 570.13 969.49 570.16 969.24
  L 574.56 932.31
  C 574.61 931.94 574.75 931.60 574.98 931.33
  C 579.70 925.69 588.85 925.05 595.19 927.48
  C 595.46 927.59 595.62 927.87 595.58 928.16
  C 592.75 950.30 589.89 972.41 587.00 994.49
  C 585.83 1003.48 584.90 1012.48 584.22 1021.49
  C 583.96 1025.01 585.36 1026.84 588.41 1026.99
  C 589.97 1027.06 591.49 1026.56 592.96 1025.47
  C 595.53 1023.57 597.60 1021.23 599.19 1018.45
  C 599.38 1018.11 599.47 1017.78 599.44 1017.50
  C 595.55 985.33 619.15 961.30 651.48 969.58
  C 651.74 969.65 652.00 969.48 652.03 969.22
  C 653.44 957.41 654.86 945.61 656.29 933.83
  C 657.32 925.37 671.27 925.45 677.09 927.38
  C 677.37 927.47 677.55 927.75 677.51 928.04
  L 672.96 962.50
  Z
  M 619.92 1013.25
  C 620.20 1020.60 625.88 1028.11 633.82 1026.94
  C 642.02 1025.72 646.04 1017.08 646.99 1009.79
  C 648.18 1000.64 649.30 991.47 650.36 982.26
  C 650.40 981.97 650.24 981.69 649.98 981.56
  C 647.44 980.39 645.38 979.76 643.80 979.67
  C 624.55 978.65 619.36 998.25 619.92 1013.25
  Z
  M 538.12 1012.00
  C 538.24 1029.14 556.72 1032.41 563.40 1017.03
  C 564.33 1014.90 565.08 1011.30 565.65 1006.23
  C 566.54 998.24 567.50 990.23 568.51 982.20
  C 568.55 981.91 568.39 981.62 568.11 981.51
  C 545.87 972.76 538.00 995.22 538.12 1012.00
  Z
  M 778.41 1020.80
  C 783.35 1028.72 792.54 1029.14 798.50 1021.67
  C 801.25 1018.22 802.75 1015.16 803.01 1012.48
  C 803.99 1002.37 805.13 992.20 806.42 981.97
  C 806.45 981.68 806.28 981.41 806.01 981.32
  C 793.94 977.25 785.27 980.65 780.02 991.54
  C 776.50 998.82 774.25 1014.13 778.41 1020.80
  Z
  M 924.49 1026.09
  C 925.62 1027.36 926.95 1027.65 928.50 1026.96
  C 932.50 1025.17 933.88 1021.77 934.11 1017.38
  C 934.54 1009.01 931.77 1001.75 925.78 995.59
  C 925.55 995.34 925.40 995.39 925.35 995.72
  C 924.22 1003.71 923.64 1011.72 922.63 1019.68
  C 922.32 1022.20 922.94 1024.34 924.49 1026.09
  Z
  M 860.70 1020.73
  C 859.81 1028.57 869.59 1029.43 871.59 1021.89
  C 873.86 1013.33 869.83 1005.77 863.91 999.82
  C 863.56 999.47 863.36 999.54 863.30 1000.02
  C 862.34 1007.00 861.47 1013.90 860.70 1020.73
  Z"
/>
<path fill="#e8772e" d="
  M 975.64 974.16
  C 975.53 974.87 975.76 975.00 976.32 974.55
  C 985.43 967.11 998.94 965.42 1008.32 972.40
  C 1015.55 977.79 1015.56 984.89 1014.17 993.91
  C 1013.00 1001.48 1011.97 1009.07 1011.07 1016.67
  C 1010.57 1020.93 1010.40 1028.07 1016.59 1026.77
  C 1024.66 1025.09 1028.71 1013.77 1030.77 1006.67
  C 1030.92 1006.14 1031.13 1006.04 1031.39 1006.38
  L 1036.26 1012.75
  C 1036.75 1013.39 1036.84 1014.47 1036.50 1015.60
  C 1032.84 1027.69 1025.59 1039.03 1011.81 1040.30
  C 998.42 1041.53 990.35 1032.56 991.74 1019.38
  C 992.60 1011.18 993.46 1002.96 994.32 994.71
  C 995.18 986.48 994.51 979.62 984.26 980.52
  C 978.53 981.02 974.00 989.44 973.30 994.80
  C 971.37 1009.57 969.50 1024.34 967.69 1039.13
  C 967.64 1039.48 967.45 1039.75 967.25 1039.75
  L 949.00 1039.75
  C 948.37 1039.75 947.89 1039.16 947.97 1038.50
  L 960.80 928.01
  C 960.84 927.63 961.04 927.33 961.31 927.25
  C 967.44 925.42 981.84 924.45 980.73 934.75
  C 979.29 948.10 977.59 961.23 975.64 974.16
  Z"
/>
<path fill="#f3c099" d="
  M 689.21 948.50
  C 689.40 951.23 689.09 953.89 688.29 956.50
  C 688.24 953.79 688.54 951.13 689.21 948.50
  Z"
/>
<path fill="#f3c099" d="
  M 672.96 962.50
  C 673.23 964.49 673.00 966.41 672.29 968.25
  L 672.96 962.50
  Z"
/>
<path fill="#f3c099" d="
  M 686.29 973.00
  C 686.47 976.04 686.19 979.04 685.46 982.00
  L 686.29 973.00
  Z"
/>
<path fill="#ffffff" d="
  M 633.82 1026.94
  C 625.88 1028.11 620.20 1020.60 619.92 1013.25
  C 619.36 998.25 624.55 978.65 643.80 979.67
  C 645.38 979.76 647.44 980.39 649.98 981.56
  C 650.24 981.69 650.40 981.97 650.36 982.26
  C 649.30 991.47 648.18 1000.64 646.99 1009.79
  C 646.04 1017.08 642.02 1025.72 633.82 1026.94
  Z"
/>
<path fill="#ffffff" d="
  M 563.40 1017.03
  C 556.72 1032.41 538.24 1029.14 538.12 1012.00
  C 538.00 995.22 545.87 972.76 568.11 981.51
  C 568.39 981.62 568.55 981.91 568.51 982.20
  C 567.50 990.23 566.54 998.24 565.65 1006.23
  C 565.08 1011.30 564.33 1014.90 563.40 1017.03
  Z"
/>
<path fill="#ffffff" d="
  M 778.41 1020.80
  C 774.25 1014.13 776.50 998.82 780.02 991.54
  C 785.27 980.65 793.94 977.25 806.01 981.32
  C 806.28 981.41 806.45 981.68 806.42 981.97
  C 805.13 992.20 803.99 1002.37 803.01 1012.48
  C 802.75 1015.16 801.25 1018.22 798.50 1021.67
  C 792.54 1029.14 783.35 1028.72 778.41 1020.80
  Z"
/>
<path fill="#f3c099" d="
  M 906.55 982.43
  C 906.98 985.48 906.65 988.42 905.54 991.25
  C 905.31 988.26 905.65 985.32 906.55 982.43
  Z"
/>
<path fill="#f3c099" d="
  M 685.21 984.00
  C 685.66 985.94 685.35 987.69 684.29 989.25
  L 685.21 984.00
  Z"
/>
<path fill="#ffffff" d="
  M 430.10 1024.42
  C 420.53 1016.96 424.01 1003.25 432.12 996.35
  C 434.93 993.96 437.74 992.06 440.57 990.66
  C 440.82 990.54 441.13 990.63 441.27 990.87
  C 446.34 999.96 454.77 1014.41 447.45 1023.18
  C 443.41 1028.02 435.06 1028.28 430.10 1024.42
  Z"
/>
<path fill="#ffffff" d="
  M 924.49 1026.09
  C 922.94 1024.34 922.32 1022.20 922.63 1019.68
  C 923.64 1011.72 924.22 1003.71 925.35 995.72
  C 925.40 995.39 925.55 995.34 925.78 995.59
  C 931.77 1001.75 934.54 1009.01 934.11 1017.38
  C 933.88 1021.77 932.50 1025.17 928.50 1026.96
  C 926.95 1027.65 925.62 1027.36 924.49 1026.09
  Z"
/>
<path fill="#ffffff" d="
  M 871.59 1021.89
  C 869.59 1029.43 859.81 1028.57 860.70 1020.73
  C 861.47 1013.90 862.34 1007.00 863.30 1000.02
  C 863.36 999.54 863.56 999.47 863.91 999.82
  C 869.83 1005.77 873.86 1013.33 871.59 1021.89
  Z"
/>
<rect fill="#e8772e" x="565.03" y="1068.26" width="10.46" height="70.90" rx="4.13"/>
<path fill="#e8772e" d="
  M 696.58 1091.27
  C 695.73 1089.08 695.22 1087.88 695.05 1087.69
  C 694.38 1086.90 693.56 1086.79 692.58 1087.38
  C 692.38 1087.50 692.25 1087.84 692.25 1088.25
  C 692.24 1103.10 692.25 1117.96 692.26 1132.81
  C 692.27 1138.35 689.75 1140.41 684.27 1138.59
  C 682.59 1138.03 681.75 1136.92 681.75 1135.25
  L 681.76 1073.82
  C 681.76 1072.10 682.48 1070.79 683.93 1069.89
  C 689.21 1066.61 697.22 1067.38 699.94 1074.14
  C 705.94 1089.06 711.90 1103.99 717.83 1118.94
  C 718.38 1120.32 719.53 1121.18 720.70 1119.84
  C 720.89 1119.62 721.00 1119.32 721.00 1119.00
  L 721.00 1072.00
  C 721.00 1070.34 721.78 1069.24 723.34 1068.71
  C 727.74 1067.20 731.27 1068.45 731.26 1073.45
  C 731.23 1092.78 731.24 1112.09 731.27 1131.38
  C 731.28 1137.65 727.75 1138.50 722.56 1139.03
  C 718.12 1139.48 715.02 1137.55 713.27 1133.25
  C 707.62 1119.40 702.05 1105.40 696.58 1091.27
  Z"
/>
<rect fill="#e8772e" x="989.25" y="1068.29" width="10.32" height="70.82" rx="3.82"/>
<rect fill="#e8772e" x="1026.51" y="1068.24" width="10.48" height="70.92" rx="4.19"/>
<path fill="#e8772e" d="
  M 446.43 1108.55
  C 445.74 1107.66 444.84 1107.23 443.72 1107.24
  C 436.09 1107.34 423.60 1108.26 417.55 1104.92
  C 409.83 1100.68 410.86 1091.80 411.09 1082.99
  C 411.55 1065.25 431.08 1068.37 442.76 1068.45
  C 449.13 1068.49 456.04 1071.78 457.91 1077.96
  C 458.89 1081.19 458.54 1085.32 458.49 1088.77
  C 458.48 1089.95 457.91 1090.73 456.79 1091.12
  C 441.47 1096.43 454.59 1077.46 441.68 1077.49
  C 436.87 1077.50 421.78 1075.25 421.58 1082.33
  C 421.35 1090.11 419.27 1098.28 428.53 1098.25
  C 436.54 1098.22 446.44 1096.80 453.35 1101.66
  C 460.14 1106.44 458.50 1114.63 458.57 1121.74
  C 458.69 1134.93 452.49 1138.50 440.22 1138.74
  C 424.24 1139.07 409.56 1140.61 411.06 1119.24
  C 411.33 1115.34 413.16 1114.56 416.74 1114.81
  C 427.30 1115.55 415.28 1129.74 428.07 1129.75
  C 433.22 1129.76 438.37 1129.75 443.51 1129.74
  C 450.33 1129.73 449.03 1111.92 446.43 1108.55
  Z"
/>
<path fill="#e8772e" d="
  M 848.57 1128.20
  C 849.06 1128.97 849.88 1129.48 850.79 1129.57
  C 855.97 1130.09 861.18 1130.18 866.42 1129.85
  C 870.43 1129.60 872.74 1128.43 872.85 1124.17
  C 872.98 1118.82 873.03 1113.46 873.00 1108.09
  C 872.94 1100.28 883.20 1100.71 883.36 1107.31
  C 883.60 1116.79 886.18 1132.00 875.95 1136.95
  C 873.64 1138.07 869.45 1138.68 863.37 1138.78
  C 852.95 1138.95 843.05 1140.12 838.04 1130.93
  C 836.29 1127.71 836.49 1121.57 836.60 1117.77
  C 836.88 1107.57 836.31 1097.35 836.65 1087.19
  C 836.89 1079.86 836.48 1075.46 842.07 1071.59
  C 848.49 1067.13 859.03 1068.44 866.50 1068.46
  C 879.67 1068.51 883.76 1077.57 882.30 1089.36
  C 882.11 1090.87 881.32 1091.88 879.92 1092.37
  C 877.01 1093.41 874.53 1092.90 872.49 1090.84
  C 872.35 1090.70 872.26 1090.29 872.24 1089.76
  C 871.97 1083.92 873.53 1077.59 865.25 1077.52
  C 861.42 1077.49 857.59 1077.48 853.76 1077.51
  C 848.07 1077.54 846.88 1080.72 847.09 1085.81
  C 847.63 1098.63 847.27 1111.65 847.24 1124.49
  C 847.24 1125.99 847.81 1127.01 848.57 1128.20
  Z"
/>
<circle fill="#e8772e" cx="1013.03" cy="1102.20" r="7.21"/>
<circle fill="#e8772e" cx="861.39" cy="1105.87" r="7.21"/>
</svg>
