<?xml version="1.0" encoding="UTF-8" standalone="no"?>
<!DOCTYPE svg PUBLIC "-//W3C//DTD SVG 1.1//EN" "http://www.w3.org/Graphics/SVG/1.1/DTD/svg11.dtd">
<svg xmlns="http://www.w3.org/2000/svg" version="1.1" viewBox="0 0 1448 1448">
<g stroke-width="2.00" fill="none" stroke-linecap="butt">
<path stroke="#f4bb97" vector-effect="non-scaling-stroke" d="
  M 544.17 486.03
  A 0.35 0.35 45.0 0 1 543.83 486.03
  L 474.95 446.52
  A 0.35 0.35 -45.4 0 1 474.95 445.92
  L 711.98 309.11
  A 0.35 0.35 72.7 0 1 712.50 309.42
  L 712.50 388.42
  A 0.35 0.35 75.0 0 1 712.33 388.72
  L 544.17 486.03"
/>
<path stroke="#f4bb97" vector-effect="non-scaling-stroke" d="
  M 735.84 311.23
  Q 735.65 311.96 735.66 312.78
  Q 736.18 350.33 735.94 388.08
  A 0.93 0.91 15.6 0 0 736.40 388.87
  L 903.76 485.73
  A 1.11 0.97 45.4 0 0 904.71 485.80
  Q 907.01 484.75 909.21 483.48
  Q 941.04 465.03 972.84 446.68
  A 0.59 0.53 43.8 0 0 972.77 445.71
  L 736.75 309.24
  A 0.72 0.56 33.0 0 0 735.91 309.31
  Q 735.56 309.76 735.76 310.31
  A 1.68 1.04 53.4 0 1 735.84 311.23"
/>
<path stroke="#f4bb97" vector-effect="non-scaling-stroke" d="
  M 724.32 798.61
  A 0.55 0.55 44.9 0 1 723.76 798.61
  L 555.77 701.40
  A 0.55 0.55 14.9 0 1 555.50 700.92
  L 555.50 506.47
  A 0.55 0.55 74.9 0 1 555.77 505.99
  L 723.72 408.79
  A 0.55 0.55 -44.6 0 1 724.28 408.79
  L 892.23 505.97
  A 0.55 0.55 14.7 0 1 892.50 506.45
  L 892.50 700.95
  A 0.55 0.55 75.0 0 1 892.23 701.43
  L 724.32 798.61"
/>
<path stroke="#f4bb97" vector-effect="non-scaling-stroke" d="
  M 512.02 712.65
  C 517.37 709.49 524.96 705.49 531.33 701.52
  A 1.54 1.42 75.3 0 0 532.00 700.25
  L 532.00 506.75
  A 0.97 0.86 -76.8 0 0 531.56 505.94
  L 463.38 467.08
  Q 462.68 466.68 462.71 467.48
  C 463.19 480.84 462.81 498.39 462.84 507.49
  Q 463.20 605.95 462.87 704.41
  C 462.83 714.88 463.12 728.47 462.98 740.51
  Q 462.97 741.01 463.41 740.76
  Q 487.87 726.92 512.02 712.65"
/>
<path stroke="#f4bb97" vector-effect="non-scaling-stroke" d="
  M 918.39 504.86
  Q 917.43 505.42 916.44 506.05
  A 0.92 0.76 -19.0 0 0 916.01 506.75
  L 916.00 700.75
  A 0.97 0.81 18.0 0 0 916.47 701.50
  L 984.65 741.37
  Q 985.27 741.72 985.27 741.00
  L 985.21 467.50
  A 0.34 0.30 -16.1 0 0 984.71 467.27
  Q 951.38 485.72 918.39 504.86"
/>
<path stroke="#f4bb97" vector-effect="non-scaling-stroke" d="
  M 474.98 762.04
  L 711.51 898.28
  A 0.49 0.31 -81.4 0 0 711.97 897.75
  L 712.09 819.75
  A 1.16 0.53 -82.7 0 0 711.83 818.91
  Q 710.67 817.97 708.05 816.46
  Q 626.05 768.98 544.01 721.52
  A 1.03 0.86 -42.9 0 0 543.06 721.57
  L 474.93 761.43
  A 0.37 0.33 43.5 0 0 474.98 762.04"
/>
<path stroke="#f4bb97" vector-effect="non-scaling-stroke" d="
  M 903.87 721.36
  A 0.36 0.36 -44.7 0 1 904.23 721.37
  L 973.08 761.42
  A 0.36 0.36 -44.9 0 1 973.08 762.04
  L 736.04 898.32
  A 0.36 0.36 77.0 0 1 735.50 898.01
  L 735.50 819.00
  A 0.36 0.36 -15.0 0 1 735.68 818.69
  L 903.87 721.36"
/>
<path stroke="#f4bb97" vector-effect="non-scaling-stroke" d="
  M 453.95 940.51
  C 470.58 933.75 476.52 952.60 467.86 963.68
  Q 467.22 964.50 468.25 964.50
  L 478.00 964.50
  A 0.88 0.82 12.8 0 0 478.76 964.06
  C 495.40 931.98 459.74 915.76 436.50 932.20
  C 418.72 944.78 427.56 963.82 435.63 979.25
  A 1.13 1.12 63.0 0 1 435.14 980.78
  C 421.52 987.65 409.80 999.88 411.36 1016.07
  C 413.63 1039.78 439.65 1046.99 457.71 1035.31
  C 477.30 1022.63 472.57 1000.72 462.79 983.23
  Q 455.74 970.61 449.79 957.45
  C 447.21 951.75 446.94 943.35 453.95 940.51"
/>
<path stroke="#f4bb97" vector-effect="non-scaling-stroke" d="
  M 514.54 938.16
  A 11.81 11.81 0.0 0 0 502.73 926.35
  A 11.81 11.81 0.0 0 0 490.92 938.16
  A 11.81 11.81 0.0 0 0 502.73 949.97
  A 11.81 11.81 0.0 0 0 514.54 938.16"
/>
<path stroke="#f9e0cc" vector-effect="non-scaling-stroke" d="
  M 906.55 982.43
  Q 905.20 986.77 905.54 991.25"
/>
<path stroke="#f4bb97" vector-effect="non-scaling-stroke" d="
  M 905.54 991.25
  Q 904.30 1004.84 902.52 1018.35
  C 898.64 1047.76 936.90 1046.32 942.79 1025.99
  C 947.64 1009.24 939.99 993.99 927.13 983.55
  A 0.93 0.70 29.3 0 1 926.78 982.76
  L 927.33 980.01
  A 0.69 0.63 5.0 0 1 928.00 979.50
  L 950.00 979.50
  A 0.75 0.50 -0.0 0 0 950.75 979.00
  L 950.75 968.50
  A 0.75 0.50 0.0 0 0 950.00 968.00
  L 929.25 968.00
  A 0.48 0.43 -86.4 0 1 928.83 967.47
  Q 930.50 953.09 932.31 938.72
  C 933.94 925.74 923.23 924.46 913.67 927.14
  A 0.80 0.78 85.8 0 0 913.10 927.82
  L 908.40 967.24
  A 0.93 0.85 2.8 0 1 907.50 967.99
  L 895.69 968.03
  A 0.67 0.61 -83.7 0 0 895.08 968.57
  L 894.19 972.68
  Q 894.04 973.33 893.48 972.67
  C 886.65 964.67 873.38 967.82 866.80 974.16
  Q 866.45 974.50 866.34 974.03
  C 864.36 965.97 852.65 967.48 846.55 969.64
  A 0.80 0.79 -7.1 0 0 846.02 970.31
  Q 843.05 998.87 841.79 1006.74
  C 840.81 1012.88 835.33 1025.03 828.33 1026.79
  C 820.39 1028.77 822.42 1017.70 822.71 1013.51
  C 823.09 1008.27 824.19 1002.74 824.77 997.31
  C 825.74 988.11 827.36 979.03 828.19 969.79
  A 0.63 0.55 -78.7 0 0 827.82 969.15
  Q 819.04 966.37 810.80 970.23
  A 1.49 1.24 -44.7 0 1 809.78 970.32
  C 777.35 959.81 749.66 985.69 756.01 1019.07
  A 1.41 1.29 57.3 0 1 755.85 1020.00
  C 751.94 1026.65 740.07 1032.22 741.70 1017.99
  Q 743.03 1006.46 744.81 994.96
  Q 746.15 986.27 745.41 982.47
  C 742.15 965.76 718.68 964.60 708.01 973.81
  Q 706.07 975.48 706.48 972.95
  Q 709.69 953.33 711.50 935.06
  C 712.55 924.35 698.64 925.45 692.19 927.06
  A 0.71 0.69 -4.3 0 0 691.66 927.66
  L 689.21 948.50"
/>
<path stroke="#f9e0cc" vector-effect="non-scaling-stroke" d="
  M 689.21 948.50
  Q 688.21 952.44 688.29 956.50"
/>
<path stroke="#f4bb97" vector-effect="non-scaling-stroke" d="
  M 688.29 956.50
  L 686.29 973.00"
/>
<path stroke="#f9e0cc" vector-effect="non-scaling-stroke" d="
  M 686.29 973.00
  L 685.46 982.00"
/>
<path stroke="#f4bb97" vector-effect="non-scaling-stroke" d="
  M 685.46 982.00
  L 685.21 984.00"
/>
<path stroke="#f9e0cc" vector-effect="non-scaling-stroke" d="
  M 685.21 984.00
  L 684.29 989.25"
/>
<path stroke="#f4bb97" vector-effect="non-scaling-stroke" d="
  M 684.29 989.25
  Q 683.09 1002.27 681.45 1015.22
  Q 680.99 1018.85 679.48 1020.97
  C 676.08 1025.76 664.93 1032.19 666.15 1019.89
  Q 668.70 994.01 672.29 968.25"
/>
<path stroke="#f9e0cc" vector-effect="non-scaling-stroke" d="
  M 672.29 968.25
  Q 673.36 965.49 672.96 962.50"
/>
<path stroke="#f4bb97" vector-effect="non-scaling-stroke" d="
  M 672.96 962.50
  L 677.51 928.04
  A 0.62 0.60 13.1 0 0 677.09 927.38
  C 671.27 925.45 657.32 925.37 656.29 933.83
  Q 654.15 951.50 652.03 969.22
  A 0.44 0.43 11.0 0 1 651.48 969.58
  C 619.15 961.30 595.55 985.33 599.44 1017.50
  A 1.73 1.02 -44.8 0 1 599.19 1018.45
  Q 596.81 1022.62 592.96 1025.47
  Q 590.75 1027.10 588.41 1026.99
  Q 583.83 1026.77 584.22 1021.49
  Q 585.24 1007.97 587.00 994.49
  Q 591.33 961.37 595.58 928.16
  A 0.64 0.63 -75.5 0 0 595.19 927.48
  C 588.85 925.05 579.70 925.69 574.98 931.33
  A 1.94 1.73 71.5 0 0 574.56 932.31
  L 570.16 969.24
  A 0.42 0.41 -79.1 0 1 569.65 969.60
  C 536.71 961.13 512.52 986.50 517.83 1019.19
  A 1.54 1.43 55.4 0 1 517.69 1020.14
  C 513.60 1027.92 501.22 1031.48 503.02 1017.75
  Q 506.18 993.63 509.28 969.46
  A 0.41 0.41 -79.3 0 0 508.98 969.02
  C 502.86 967.54 493.02 967.77 488.54 973.10
  A 1.82 1.61 71.8 0 0 488.16 973.98
  Q 485.79 993.59 483.61 1013.21
  C 482.11 1026.74 482.16 1037.86 497.45 1040.52
  C 506.16 1042.03 514.31 1039.20 520.18 1032.63
  Q 521.30 1031.37 522.60 1030.29
  A 0.51 0.51 -40.9 0 1 523.31 1030.34
  C 534.50 1043.14 552.47 1044.62 564.72 1031.88
  A 0.88 0.88 -37.3 0 1 566.12 1032.07
  C 568.93 1037.26 574.53 1039.96 580.49 1040.34
  Q 594.89 1041.27 603.56 1028.92
  A 0.37 0.36 43.4 0 1 604.15 1028.91
  C 614.68 1042.60 635.24 1045.66 646.97 1031.55
  A 0.35 0.35 48.8 0 1 647.54 1031.59
  C 654.19 1042.47 668.35 1042.61 678.08 1036.30
  Q 679.15 1035.61 679.01 1036.74
  L 678.70 1039.25
  A 0.54 0.45 2.8 0 0 679.25 1039.75
  L 698.00 1039.75
  A 0.70 0.44 -84.7 0 0 698.47 1039.13
  Q 701.10 1018.25 703.78 997.38
  C 704.81 989.44 709.38 977.92 719.68 980.78
  C 727.11 982.85 725.59 990.60 724.86 997.26
  Q 723.82 1006.81 722.79 1016.33
  Q 721.97 1023.92 722.88 1027.59
  C 725.40 1037.67 734.59 1041.67 744.48 1040.02
  Q 754.03 1038.42 760.45 1030.09
  A 0.41 0.41 -47.5 0 1 761.08 1030.06
  C 772.58 1042.96 790.78 1045.02 803.43 1031.55
  A 0.38 0.37 50.9 0 1 804.02 1031.62
  C 812.96 1046.37 833.21 1041.30 841.75 1029.04
  Q 842.03 1028.63 842.20 1029.10
  C 844.98 1036.88 850.84 1040.41 858.78 1040.66
  C 870.96 1041.05 880.23 1033.53 881.70 1021.67
  C 883.38 1008.04 876.53 997.61 866.32 989.09
  A 0.69 0.69 -59.4 0 1 866.12 988.30
  C 869.56 979.87 882.17 976.43 881.48 990.04
  A 0.51 0.50 2.2 0 0 881.98 990.57
  Q 893.10 990.69 895.76 980.13
  A 0.80 0.40 -78.6 0 1 896.25 979.50
  L 906.25 979.50
  A 0.51 0.44 -88.2 0 1 906.68 980.04
  L 906.55 982.43"
/>
<path stroke="#ee9c64" vector-effect="non-scaling-stroke" d="
  M 672.96 962.50
  L 672.29 968.25"
/>
<path stroke="#ee9c64" vector-effect="non-scaling-stroke" d="
  M 684.29 989.25
  Q 685.88 986.91 685.21 984.00"
/>
<path stroke="#ee9c64" vector-effect="non-scaling-stroke" d="
  M 685.46 982.00
  Q 686.56 977.56 686.29 973.00"
/>
<path stroke="#ee9c64" vector-effect="non-scaling-stroke" d="
  M 688.29 956.50
  Q 689.49 952.59 689.21 948.50"
/>
<path stroke="#ee9c64" vector-effect="non-scaling-stroke" d="
  M 905.54 991.25
  Q 907.20 987.00 906.55 982.43"
/>
<path stroke="#f4bb97" vector-effect="non-scaling-stroke" d="
  M 975.64 974.16
  Q 978.57 954.77 980.73 934.75
  C 981.84 924.45 967.44 925.42 961.31 927.25
  A 0.95 0.68 88.1 0 0 960.80 928.01
  L 947.97 1038.50
  A 1.12 1.05 -86.4 0 0 949.00 1039.75
  L 967.25 1039.75
  A 0.70 0.40 -84.5 0 0 967.69 1039.13
  Q 970.41 1016.95 973.30 994.80
  C 974.00 989.44 978.53 981.02 984.26 980.52
  C 994.51 979.62 995.18 986.48 994.32 994.71
  Q 993.03 1007.08 991.74 1019.38
  C 990.35 1032.56 998.42 1041.53 1011.81 1040.30
  C 1025.59 1039.03 1032.84 1027.69 1036.50 1015.60
  A 3.58 2.25 -62.7 0 0 1036.26 1012.75
  L 1031.39 1006.38
  Q 1031.00 1005.87 1030.77 1006.67
  C 1028.71 1013.77 1024.66 1025.09 1016.59 1026.77
  C 1010.40 1028.07 1010.57 1020.93 1011.07 1016.67
  Q 1012.42 1005.27 1014.17 993.91
  C 1015.56 984.89 1015.55 977.79 1008.32 972.40
  C 998.94 965.42 985.43 967.11 976.32 974.55
  Q 975.48 975.23 975.64 974.16"
/>
<path stroke="#f4bb97" vector-effect="non-scaling-stroke" d="
  M 575.49 1072.39
  A 4.13 4.13 0.0 0 0 571.36 1068.26
  L 569.16 1068.26
  A 4.13 4.13 0.0 0 0 565.03 1072.39
  L 565.03 1135.03
  A 4.13 4.13 0.0 0 0 569.16 1139.16
  L 571.36 1139.16
  A 4.13 4.13 0.0 0 0 575.49 1135.03
  L 575.49 1072.39"
/>
<path stroke="#f4bb97" vector-effect="non-scaling-stroke" d="
  M 696.58 1091.27
  Q 704.79 1112.47 713.27 1133.25
  Q 715.90 1139.70 722.56 1139.03
  C 727.75 1138.50 731.28 1137.65 731.27 1131.38
  Q 731.22 1102.44 731.26 1073.45
  C 731.27 1068.45 727.74 1067.20 723.34 1068.71
  Q 721.00 1069.51 721.00 1072.00
  L 721.00 1119.00
  A 1.34 1.16 68.9 0 1 720.70 1119.84
  C 719.53 1121.18 718.38 1120.32 717.83 1118.94
  Q 708.94 1096.52 699.94 1074.14
  C 697.22 1067.38 689.21 1066.61 683.93 1069.89
  Q 681.76 1071.24 681.76 1073.82
  L 681.75 1135.25
  Q 681.75 1137.75 684.27 1138.59
  C 689.75 1140.41 692.27 1138.35 692.26 1132.81
  Q 692.24 1110.53 692.25 1088.25
  A 1.11 0.59 82.8 0 1 692.58 1087.38
  Q 694.05 1086.50 695.05 1087.69
  Q 695.30 1087.98 696.58 1091.27"
/>
<path stroke="#f4bb97" vector-effect="non-scaling-stroke" d="
  M 999.57 1072.11
  A 3.82 3.82 0.0 0 0 995.75 1068.29
  L 993.07 1068.29
  A 3.82 3.82 0.0 0 0 989.25 1072.11
  L 989.25 1135.29
  A 3.82 3.82 0.0 0 0 993.07 1139.11
  L 995.75 1139.11
  A 3.82 3.82 0.0 0 0 999.57 1135.29
  L 999.57 1072.11"
/>
<path stroke="#f4bb97" vector-effect="non-scaling-stroke" d="
  M 1036.99 1072.43
  A 4.19 4.19 0.0 0 0 1032.80 1068.24
  L 1030.70 1068.24
  A 4.19 4.19 0.0 0 0 1026.51 1072.43
  L 1026.51 1134.97
  A 4.19 4.19 0.0 0 0 1030.70 1139.16
  L 1032.80 1139.16
  A 4.19 4.19 0.0 0 0 1036.99 1134.97
  L 1036.99 1072.43"
/>
<path stroke="#f4bb97" vector-effect="non-scaling-stroke" d="
  M 446.43 1108.55
  C 449.03 1111.92 450.33 1129.73 443.51 1129.74
  Q 435.80 1129.76 428.07 1129.75
  C 415.28 1129.74 427.30 1115.55 416.74 1114.81
  C 413.16 1114.56 411.33 1115.34 411.06 1119.24
  C 409.56 1140.61 424.24 1139.07 440.22 1138.74
  C 452.49 1138.50 458.69 1134.93 458.57 1121.74
  C 458.50 1114.63 460.14 1106.44 453.35 1101.66
  C 446.44 1096.80 436.54 1098.22 428.53 1098.25
  C 419.27 1098.28 421.35 1090.11 421.58 1082.33
  C 421.78 1075.25 436.87 1077.50 441.68 1077.49
  C 454.59 1077.46 441.47 1096.43 456.79 1091.12
  Q 458.47 1090.54 458.49 1088.77
  C 458.54 1085.32 458.89 1081.19 457.91 1077.96
  C 456.04 1071.78 449.13 1068.49 442.76 1068.45
  C 431.08 1068.37 411.55 1065.25 411.09 1082.99
  C 410.86 1091.80 409.83 1100.68 417.55 1104.92
  C 423.60 1108.26 436.09 1107.34 443.72 1107.24
  Q 445.40 1107.22 446.43 1108.55"
/>
<path stroke="#f4bb97" vector-effect="non-scaling-stroke" d="
  M 848.57 1128.20
  C 847.81 1127.01 847.24 1125.99 847.24 1124.49
  C 847.27 1111.65 847.63 1098.63 847.09 1085.81
  C 846.88 1080.72 848.07 1077.54 853.76 1077.51
  Q 859.50 1077.47 865.25 1077.52
  C 873.53 1077.59 871.97 1083.92 872.24 1089.76
  A 1.47 0.39 -88.2 0 0 872.49 1090.84
  Q 875.55 1093.93 879.92 1092.37
  Q 882.02 1091.63 882.30 1089.36
  C 883.76 1077.57 879.67 1068.51 866.50 1068.46
  C 859.03 1068.44 848.49 1067.13 842.07 1071.59
  C 836.48 1075.46 836.89 1079.86 836.65 1087.19
  C 836.31 1097.35 836.88 1107.57 836.60 1117.77
  C 836.49 1121.57 836.29 1127.71 838.04 1130.93
  C 843.05 1140.12 852.95 1138.95 863.37 1138.78
  Q 872.49 1138.63 875.95 1136.95
  C 886.18 1132.00 883.60 1116.79 883.36 1107.31
  C 883.20 1100.71 872.94 1100.28 873.00 1108.09
  Q 873.05 1116.14 872.85 1124.17
  C 872.74 1128.43 870.43 1129.60 866.42 1129.85
  Q 858.56 1130.35 850.79 1129.57
  A 3.00 3.00 76.7 0 1 848.57 1128.20"
/>
<path stroke="#f4bb97" vector-effect="non-scaling-stroke" d="
  M 1020.24 1102.20
  A 7.21 7.21 0.0 0 0 1013.03 1094.99
  A 7.21 7.21 0.0 0 0 1005.82 1102.20
  A 7.21 7.21 0.0 0 0 1013.03 1109.41
  A 7.21 7.21 0.0 0 0 1020.24 1102.20"
/>
<path stroke="#f4bb97" vector-effect="non-scaling-stroke" d="
  M 868.60 1105.87
  A 7.21 7.21 0.0 0 0 861.39 1098.66
  A 7.21 7.21 0.0 0 0 854.18 1105.87
  A 7.21 7.21 0.0 0 0 861.39 1113.08
  A 7.21 7.21 0.0 0 0 868.60 1105.87"
/>
<path stroke="#f4bb97" vector-effect="non-scaling-stroke" d="
  M 430.10 1024.42
  C 435.06 1028.28 443.41 1028.02 447.45 1023.18
  C 454.77 1014.41 446.34 999.96 441.27 990.87
  A 0.54 0.53 -28.1 0 0 440.57 990.66
  Q 436.33 992.76 432.12 996.35
  C 424.01 1003.25 420.53 1016.96 430.10 1024.42"
/>
<path stroke="#f4bb97" vector-effect="non-scaling-stroke" d="
  M 619.92 1013.25
  C 620.20 1020.60 625.88 1028.11 633.82 1026.94
  C 642.02 1025.72 646.04 1017.08 646.99 1009.79
  Q 648.77 996.07 650.36 982.26
  A 0.69 0.68 -73.9 0 0 649.98 981.56
  Q 646.17 979.80 643.80 979.67
  C 624.55 978.65 619.36 998.25 619.92 1013.25"
/>
<path stroke="#f4bb97" vector-effect="non-scaling-stroke" d="
  M 538.12 1012.00
  C 538.24 1029.14 556.72 1032.41 563.40 1017.03
  Q 564.79 1013.83 565.65 1006.23
  Q 566.99 994.25 568.51 982.20
  A 0.65 0.65 15.0 0 0 568.11 981.51
  C 545.87 972.76 538.00 995.22 538.12 1012.00"
/>
<path stroke="#f4bb97" vector-effect="non-scaling-stroke" d="
  M 778.41 1020.80
  C 783.35 1028.72 792.54 1029.14 798.50 1021.67
  Q 802.62 1016.50 803.01 1012.48
  Q 804.48 997.31 806.42 981.97
  A 0.61 0.61 12.9 0 0 806.01 981.32
  Q 787.90 975.21 780.02 991.54
  C 776.50 998.82 774.25 1014.13 778.41 1020.80"
/>
<path stroke="#f4bb97" vector-effect="non-scaling-stroke" d="
  M 924.49 1026.09
  Q 926.18 1028.00 928.50 1026.96
  C 932.50 1025.17 933.88 1021.77 934.11 1017.38
  Q 934.76 1004.83 925.78 995.59
  Q 925.43 995.22 925.35 995.72
  C 924.22 1003.71 923.64 1011.72 922.63 1019.68
  Q 922.16 1023.46 924.49 1026.09"
/>
<path stroke="#f4bb97" vector-effect="non-scaling-stroke" d="
  M 860.70 1020.73
  C 859.81 1028.57 869.59 1029.43 871.59 1021.89
  C 873.86 1013.33 869.83 1005.77 863.91 999.82
  Q 863.39 999.30 863.30 1000.02
  Q 861.86 1010.49 860.70 1020.73"
/>
</g>
<path fill="#ffffff" d="
  M 1447.81 723.99
  A 723.81 723.81 0.0 0 1 724.00 1447.80
  A 723.81 723.81 0.0 0 1 0.19 723.99
  A 723.81 723.81 0.0 0 1 724.00 0.18
  A 723.81 723.81 0.0 0 1 1447.81 723.99
  Z
  M 1437.43 723.99
  A 713.43 713.43 0.0 0 0 724.00 10.56
  A 713.43 713.43 0.0 0 0 10.57 723.99
  A 713.43 713.43 0.0 0 0 724.00 1437.42
  A 713.43 713.43 0.0 0 0 1437.43 723.99
  Z"
/>
<path fill="#ffffff" d="
  M 1418.85 723.99
  A 694.85 694.85 0.0 0 1 724.00 1418.84
  A 694.85 694.85 0.0 0 1 29.15 723.99
  A 694.85 694.85 0.0 0 1 724.00 29.14
  A 694.85 694.85 0.0 0 1 1418.85 723.99
  Z
  M 544.17 486.03
  A 0.35 0.35 45.0 0 1 543.83 486.03
  L 474.95 446.52
  A 0.35 0.35 -45.4 0 1 474.95 445.92
  L 711.98 309.11
  A 0.35 0.35 72.7 0 1 712.50 309.42
  L 712.50 388.42
  A 0.35 0.35 75.0 0 1 712.33 388.72
  L 544.17 486.03
  Z
  M 735.84 311.23
  Q 735.65 311.96 735.66 312.78
  Q 736.18 350.33 735.94 388.08
  A 0.93 0.91 15.6 0 0 736.40 388.87
  L 903.76 485.73
  A 1.11 0.97 45.4 0 0 904.71 485.80
  Q 907.01 484.75 909.21 483.48
  Q 941.04 465.03 972.84 446.68
  A 0.59 0.53 43.8 0 0 972.77 445.71
  L 736.75 309.24
  A 0.72 0.56 33.0 0 0 735.91 309.31
  Q 735.56 309.76 735.76 310.31
  A 1.68 1.04 53.4 0 1 735.84 311.23
  Z
  M 724.32 798.61
  A 0.55 0.55 44.9 0 1 723.76 798.61
  L 555.77 701.40
  A 0.55 0.55 14.9 0 1 555.50 700.92
  L 555.50 506.47
  A 0.55 0.55 74.9 0 1 555.77 505.99
  L 723.72 408.79
  A 0.55 0.55 -44.6 0 1 724.28 408.79
  L 892.23 505.97
  A 0.55 0.55 14.7 0 1 892.50 506.45
  L 892.50 700.95
  A 0.55 0.55 75.0 0 1 892.23 701.43
  L 724.32 798.61
  Z
  M 512.02 712.65
  C 517.37 709.49 524.96 705.49 531.33 701.52
  A 1.54 1.42 75.3 0 0 532.00 700.25
  L 532.00 506.75
  A 0.97 0.86 -76.8 0 0 531.56 505.94
  L 463.38 467.08
  Q 462.68 466.68 462.71 467.48
  C 463.19 480.84 462.81 498.39 462.84 507.49
  Q 463.20 605.95 462.87 704.41
  C 462.83 714.88 463.12 728.47 462.98 740.51
  Q 462.97 741.01 463.41 740.76
  Q 487.87 726.92 512.02 712.65
  Z
  M 918.39 504.86
  Q 917.43 505.42 916.44 506.05
  A 0.92 0.76 -19.0 0 0 916.01 506.75
  L 916.00 700.75
  A 0.97 0.81 18.0 0 0 916.47 701.50
  L 984.65 741.37
  Q 985.27 741.72 985.27 741.00
  L 985.21 467.50
  A 0.34 0.30 -16.1 0 0 984.71 467.27
  Q 951.38 485.72 918.39 504.86
  Z
  M 474.98 762.04
  L 711.51 898.28
  A 0.49 0.31 -81.4 0 0 711.97 897.75
  L 712.09 819.75
  A 1.16 0.53 -82.7 0 0 711.83 818.91
  Q 710.67 817.97 708.05 816.46
  Q 626.05 768.98 544.01 721.52
  A 1.03 0.86 -42.9 0 0 543.06 721.57
  L 474.93 761.43
  A 0.37 0.33 43.5 0 0 474.98 762.04
  Z
  M 903.87 721.36
  A 0.36 0.36 -44.7 0 1 904.23 721.37
  L 973.08 761.42
  A 0.36 0.36 -44.9 0 1 973.08 762.04
  L 736.04 898.32
  A 0.36 0.36 77.0 0 1 735.50 898.01
  L 735.50 819.00
  A 0.36 0.36 -15.0 0 1 735.68 818.69
  L 903.87 721.36
  Z
  M 453.95 940.51
  C 470.58 933.75 476.52 952.60 467.86 963.68
  Q 467.22 964.50 468.25 964.50
  L 478.00 964.50
  A 0.88 0.82 12.8 0 0 478.76 964.06
  C 495.40 931.98 459.74 915.76 436.50 932.20
  C 418.72 944.78 427.56 963.82 435.63 979.25
  A 1.13 1.12 63.0 0 1 435.14 980.78
  C 421.52 987.65 409.80 999.88 411.36 1016.07
  C 413.63 1039.78 439.65 1046.99 457.71 1035.31
  C 477.30 1022.63 472.57 1000.72 462.79 983.23
  Q 455.74 970.61 449.79 957.45
  C 447.21 951.75 446.94 943.35 453.95 940.51
  Z
  M 514.54 938.16
  A 11.81 11.81 0.0 0 0 502.73 926.35
  A 11.81 11.81 0.0 0 0 490.92 938.16
  A 11.81 11.81 0.0 0 0 502.73 949.97
  A 11.81 11.81 0.0 0 0 514.54 938.16
  Z
  M 906.55 982.43
  Q 905.20 986.77 905.54 991.25
  Q 904.30 1004.84 902.52 1018.35
  C 898.64 1047.76 936.90 1046.32 942.79 1025.99
  C 947.64 1009.24 939.99 993.99 927.13 983.55
  A 0.93 0.70 29.3 0 1 926.78 982.76
  L 927.33 980.01
  A 0.69 0.63 5.0 0 1 928.00 979.50
  L 950.00 979.50
  A 0.75 0.50 -0.0 0 0 950.75 979.00
  L 950.75 968.50
  A 0.75 0.50 0.0 0 0 950.00 968.00
  L 929.25 968.00
  A 0.48 0.43 -86.4 0 1 928.83 967.47
  Q 930.50 953.09 932.31 938.72
  C 933.94 925.74 923.23 924.46 913.67 927.14
  A 0.80 0.78 85.8 0 0 913.10 927.82
  L 908.40 967.24
  A 0.93 0.85 2.8 0 1 907.50 967.99
  L 895.69 968.03
  A 0.67 0.61 -83.7 0 0 895.08 968.57
  L 894.19 972.68
  Q 894.04 973.33 893.48 972.67
  C 886.65 964.67 873.38 967.82 866.80 974.16
  Q 866.45 974.50 866.34 974.03
  C 864.36 965.97 852.65 967.48 846.55 969.64
  A 0.80 0.79 -7.1 0 0 846.02 970.31
  Q 843.05 998.87 841.79 1006.74
  C 840.81 1012.88 835.33 1025.03 828.33 1026.79
  C 820.39 1028.77 822.42 1017.70 822.71 1013.51
  C 823.09 1008.27 824.19 1002.74 824.77 997.31
  C 825.74 988.11 827.36 979.03 828.19 969.79
  A 0.63 0.55 -78.7 0 0 827.82 969.15
  Q 819.04 966.37 810.80 970.23
  A 1.49 1.24 -44.7 0 1 809.78 970.32
  C 777.35 959.81 749.66 985.69 756.01 1019.07
  A 1.41 1.29 57.3 0 1 755.85 1020.00
  C 751.94 1026.65 740.07 1032.22 741.70 1017.99
  Q 743.03 1006.46 744.81 994.96
  Q 746.15 986.27 745.41 982.47
  C 742.15 965.76 718.68 964.60 708.01 973.81
  Q 706.07 975.48 706.48 972.95
  Q 709.69 953.33 711.50 935.06
  C 712.55 924.35 698.64 925.45 692.19 927.06
  A 0.71 0.69 -4.3 0 0 691.66 927.66
  L 689.21 948.50
  Q 688.21 952.44 688.29 956.50
  L 686.29 973.00
  L 685.46 982.00
  L 685.21 984.00
  L 684.29 989.25
  Q 683.09 1002.27 681.45 1015.22
  Q 680.99 1018.85 679.48 1020.97
  C 676.08 1025.76 664.93 1032.19 666.15 1019.89
  Q 668.70 994.01 672.29 968.25
  Q 673.36 965.49 672.96 962.50
  L 677.51 928.04
  A 0.62 0.60 13.1 0 0 677.09 927.38
  C 671.27 925.45 657.32 925.37 656.29 933.83
  Q 654.15 951.50 652.03 969.22
  A 0.44 0.43 11.0 0 1 651.48 969.58
  C 619.15 961.30 595.55 985.33 599.44 1017.50
  A 1.73 1.02 -44.8 0 1 599.19 1018.45
  Q 596.81 1022.62 592.96 1025.47
  Q 590.75 1027.10 588.41 1026.99
  Q 583.83 1026.77 584.22 1021.49
  Q 585.24 1007.97 587.00 994.49
  Q 591.33 961.37 595.58 928.16
  A 0.64 0.63 -75.5 0 0 595.19 927.48
  C 588.85 925.05 579.70 925.69 574.98 931.33
  A 1.94 1.73 71.5 0 0 574.56 932.31
  L 570.16 969.24
  A 0.42 0.41 -79.1 0 1 569.65 969.60
  C 536.71 961.13 512.52 986.50 517.83 1019.19
  A 1.54 1.43 55.4 0 1 517.69 1020.14
  C 513.60 1027.92 501.22 1031.48 503.02 1017.75
  Q 506.18 993.63 509.28 969.46
  A 0.41 0.41 -79.3 0 0 508.98 969.02
  C 502.86 967.54 493.02 967.77 488.54 973.10
  A 1.82 1.61 71.8 0 0 488.16 973.98
  Q 485.79 993.59 483.61 1013.21
  C 482.11 1026.74 482.16 1037.86 497.45 1040.52
  C 506.16 1042.03 514.31 1039.20 520.18 1032.63
  Q 521.30 1031.37 522.60 1030.29
  A 0.51 0.51 -40.9 0 1 523.31 1030.34
  C 534.50 1043.14 552.47 1044.62 564.72 1031.88
  A 0.88 0.88 -37.3 0 1 566.12 1032.07
  C 568.93 1037.26 574.53 1039.96 580.49 1040.34
  Q 594.89 1041.27 603.56 1028.92
  A 0.37 0.36 43.4 0 1 604.15 1028.91
  C 614.68 1042.60 635.24 1045.66 646.97 1031.55
  A 0.35 0.35 48.8 0 1 647.54 1031.59
  C 654.19 1042.47 668.35 1042.61 678.08 1036.30
  Q 679.15 1035.61 679.01 1036.74
  L 678.70 1039.25
  A 0.54 0.45 2.8 0 0 679.25 1039.75
  L 698.00 1039.75
  A 0.70 0.44 -84.7 0 0 698.47 1039.13
  Q 701.10 1018.25 703.78 997.38
  C 704.81 989.44 709.38 977.92 719.68 980.78
  C 727.11 982.85 725.59 990.60 724.86 997.26
  Q 723.82 1006.81 722.79 1016.33
  Q 721.97 1023.92 722.88 1027.59
  C 725.40 1037.67 734.59 1041.67 744.48 1040.02
  Q 754.03 1038.42 760.45 1030.09
  A 0.41 0.41 -47.5 0 1 761.08 1030.06
  C 772.58 1042.96 790.78 1045.02 803.43 1031.55
  A 0.38 0.37 50.9 0 1 804.02 1031.62
  C 812.96 1046.37 833.21 1041.30 841.75 1029.04
  Q 842.03 1028.63 842.20 1029.10
  C 844.98 1036.88 850.84 1040.41 858.78 1040.66
  C 870.96 1041.05 880.23 1033.53 881.70 1021.67
  C 883.38 1008.04 876.53 997.61 866.32 989.09
  A 0.69 0.69 -59.4 0 1 866.12 988.30
  C 869.56 979.87 882.17 976.43 881.48 990.04
  A 0.51 0.50 2.2 0 0 881.98 990.57
  Q 893.10 990.69 895.76 980.13
  A 0.80 0.40 -78.6 0 1 896.25 979.50
  L 906.25 979.50
  A 0.51 0.44 -88.2 0 1 906.68 980.04
  L 906.55 982.43
  Z
  M 975.64 974.16
  Q 978.57 954.77 980.73 934.75
  C 981.84 924.45 967.44 925.42 961.31 927.25
  A 0.95 0.68 88.1 0 0 960.80 928.01
  L 947.97 1038.50
  A 1.12 1.05 -86.4 0 0 949.00 1039.75
  L 967.25 1039.75
  A 0.70 0.40 -84.5 0 0 967.69 1039.13
  Q 970.41 1016.95 973.30 994.80
  C 974.00 989.44 978.53 981.02 984.26 980.52
  C 994.51 979.62 995.18 986.48 994.32 994.71
  Q 993.03 1007.08 991.74 1019.38
  C 990.35 1032.56 998.42 1041.53 1011.81 1040.30
  C 1025.59 1039.03 1032.84 1027.69 1036.50 1015.60
  A 3.58 2.25 -62.7 0 0 1036.26 1012.75
  L 1031.39 1006.38
  Q 1031.00 1005.87 1030.77 1006.67
  C 1028.71 1013.77 1024.66 1025.09 1016.59 1026.77
  C 1010.40 1028.07 1010.57 1020.93 1011.07 1016.67
  Q 1012.42 1005.27 1014.17 993.91
  C 1015.56 984.89 1015.55 977.79 1008.32 972.40
  C 998.94 965.42 985.43 967.11 976.32 974.55
  Q 975.48 975.23 975.64 974.16
  Z
  M 575.49 1072.39
  A 4.13 4.13 0.0 0 0 571.36 1068.26
  L 569.16 1068.26
  A 4.13 4.13 0.0 0 0 565.03 1072.39
  L 565.03 1135.03
  A 4.13 4.13 0.0 0 0 569.16 1139.16
  L 571.36 1139.16
  A 4.13 4.13 0.0 0 0 575.49 1135.03
  L 575.49 1072.39
  Z
  M 696.58 1091.27
  Q 704.79 1112.47 713.27 1133.25
  Q 715.90 1139.70 722.56 1139.03
  C 727.75 1138.50 731.28 1137.65 731.27 1131.38
  Q 731.22 1102.44 731.26 1073.45
  C 731.27 1068.45 727.74 1067.20 723.34 1068.71
  Q 721.00 1069.51 721.00 1072.00
  L 721.00 1119.00
  A 1.34 1.16 68.9 0 1 720.70 1119.84
  C 719.53 1121.18 718.38 1120.32 717.83 1118.94
  Q 708.94 1096.52 699.94 1074.14
  C 697.22 1067.38 689.21 1066.61 683.93 1069.89
  Q 681.76 1071.24 681.76 1073.82
  L 681.75 1135.25
  Q 681.75 1137.75 684.27 1138.59
  C 689.75 1140.41 692.27 1138.35 692.26 1132.81
  Q 692.24 1110.53 692.25 1088.25
  A 1.11 0.59 82.8 0 1 692.58 1087.38
  Q 694.05 1086.50 695.05 1087.69
  Q 695.30 1087.98 696.58 1091.27
  Z
  M 999.57 1072.11
  A 3.82 3.82 0.0 0 0 995.75 1068.29
  L 993.07 1068.29
  A 3.82 3.82 0.0 0 0 989.25 1072.11
  L 989.25 1135.29
  A 3.82 3.82 0.0 0 0 993.07 1139.11
  L 995.75 1139.11
  A 3.82 3.82 0.0 0 0 999.57 1135.29
  L 999.57 1072.11
  Z
  M 1036.99 1072.43
  A 4.19 4.19 0.0 0 0 1032.80 1068.24
  L 1030.70 1068.24
  A 4.19 4.19 0.0 0 0 1026.51 1072.43
  L 1026.51 1134.97
  A 4.19 4.19 0.0 0 0 1030.70 1139.16
  L 1032.80 1139.16
  A 4.19 4.19 0.0 0 0 1036.99 1134.97
  L 1036.99 1072.43
  Z
  M 446.43 1108.55
  C 449.03 1111.92 450.33 1129.73 443.51 1129.74
  Q 435.80 1129.76 428.07 1129.75
  C 415.28 1129.74 427.30 1115.55 416.74 1114.81
  C 413.16 1114.56 411.33 1115.34 411.06 1119.24
  C 409.56 1140.61 424.24 1139.07 440.22 1138.74
  C 452.49 1138.50 458.69 1134.93 458.57 1121.74
  C 458.50 1114.63 460.14 1106.44 453.35 1101.66
  C 446.44 1096.80 436.54 1098.22 428.53 1098.25
  C 419.27 1098.28 421.35 1090.11 421.58 1082.33
  C 421.78 1075.25 436.87 1077.50 441.68 1077.49
  C 454.59 1077.46 441.47 1096.43 456.79 1091.12
  Q 458.47 1090.54 458.49 1088.77
  C 458.54 1085.32 458.89 1081.19 457.91 1077.96
  C 456.04 1071.78 449.13 1068.49 442.76 1068.45
  C 431.08 1068.37 411.55 1065.25 411.09 1082.99
  C 410.86 1091.80 409.83 1100.68 417.55 1104.92
  C 423.60 1108.26 436.09 1107.34 443.72 1107.24
  Q 445.40 1107.22 446.43 1108.55
  Z
  M 848.57 1128.20
  C 847.81 1127.01 847.24 1125.99 847.24 1124.49
  C 847.27 1111.65 847.63 1098.63 847.09 1085.81
  C 846.88 1080.72 848.07 1077.54 853.76 1077.51
  Q 859.50 1077.47 865.25 1077.52
  C 873.53 1077.59 871.97 1083.92 872.24 1089.76
  A 1.47 0.39 -88.2 0 0 872.49 1090.84
  Q 875.55 1093.93 879.92 1092.37
  Q 882.02 1091.63 882.30 1089.36
  C 883.76 1077.57 879.67 1068.51 866.50 1068.46
  C 859.03 1068.44 848.49 1067.13 842.07 1071.59
  C 836.48 1075.46 836.89 1079.86 836.65 1087.19
  C 836.31 1097.35 836.88 1107.57 836.60 1117.77
  C 836.49 1121.57 836.29 1127.71 838.04 1130.93
  C 843.05 1140.12 852.95 1138.95 863.37 1138.78
  Q 872.49 1138.63 875.95 1136.95
  C 886.18 1132.00 883.60 1116.79 883.36 1107.31
  C 883.20 1100.71 872.94 1100.28 873.00 1108.09
  Q 873.05 1116.14 872.85 1124.17
  C 872.74 1128.43 870.43 1129.60 866.42 1129.85
  Q 858.56 1130.35 850.79 1129.57
  A 3.00 3.00 76.7 0 1 848.57 1128.20
  Z
  M 1020.24 1102.20
  A 7.21 7.21 0.0 0 0 1013.03 1094.99
  A 7.21 7.21 0.0 0 0 1005.82 1102.20
  A 7.21 7.21 0.0 0 0 1013.03 1109.41
  A 7.21 7.21 0.0 0 0 1020.24 1102.20
  Z
  M 868.60 1105.87
  A 7.21 7.21 0.0 0 0 861.39 1098.66
  A 7.21 7.21 0.0 0 0 854.18 1105.87
  A 7.21 7.21 0.0 0 0 861.39 1113.08
  A 7.21 7.21 0.0 0 0 868.60 1105.87
  Z"
/>
<path fill="#e8772e" d="
  M 474.95 445.92
  L 711.98 309.11
  A 0.35 0.35 -15.0 0 1 712.50 309.42
  L 712.50 388.42
  A 0.35 0.35 74.9 0 1 712.33 388.72
  L 544.17 486.03
  A 0.35 0.35 -45.2 0 1 543.83 486.03
  L 474.95 446.52
  A 0.35 0.35 0.0 0 1 474.95 445.92
  Z"
/>
<path fill="#e8772e" d="
  M 735.76 310.31
  Q 735.56 309.76 735.91 309.31
  A 0.72 0.56 33.0 0 1 736.75 309.24
  L 972.77 445.71
  A 0.59 0.53 43.8 0 1 972.84 446.68
  Q 941.04 465.03 909.21 483.48
  Q 907.01 484.75 904.71 485.80
  A 1.11 0.97 45.4 0 1 903.76 485.73
  L 736.40 388.87
  A 0.93 0.91 15.6 0 1 735.94 388.08
  Q 736.18 350.33 735.66 312.78
  Q 735.65 311.96 735.84 311.23
  A 1.68 1.04 53.4 0 0 735.76 310.31
  Z"
/>
<path fill="#e8772e" d="
  M 555.50 700.92
  L 555.50 506.47
  A 0.55 0.55 74.9 0 1 555.77 505.99
  L 723.72 408.79
  A 0.55 0.55 -44.6 0 1 724.28 408.79
  L 892.23 505.97
  A 0.55 0.55 -75.3 0 1 892.50 506.45
  L 892.50 700.95
  A 0.55 0.55 -14.5 0 1 892.23 701.43
  L 724.32 798.61
  A 0.55 0.55 0.0 0 1 723.76 798.61
  L 555.77 701.40
  A 0.55 0.55 14.9 0 1 555.50 700.92
  Z"
/>
<path fill="#e8772e" d="
  M 512.02 712.65
  Q 487.87 726.92 463.41 740.76
  Q 462.97 741.01 462.98 740.51
  C 463.12 728.47 462.83 714.88 462.87 704.41
  Q 463.20 605.95 462.84 507.49
  C 462.81 498.39 463.19 480.84 462.71 467.48
  Q 462.68 466.68 463.38 467.08
  L 531.56 505.94
  A 0.97 0.86 -76.8 0 1 532.00 506.75
  L 532.00 700.25
  A 1.54 1.42 75.3 0 1 531.33 701.52
  C 524.96 705.49 517.37 709.49 512.02 712.65
  Z"
/>
<path fill="#e8772e" d="
  M 918.39 504.86
  Q 951.38 485.72 984.71 467.27
  A 0.34 0.30 -16.1 0 1 985.21 467.50
  L 985.27 741.00
  Q 985.27 741.72 984.65 741.37
  L 916.47 701.50
  A 0.97 0.81 18.0 0 1 916.00 700.75
  L 916.01 506.75
  A 0.92 0.76 -19.0 0 1 916.44 506.05
  Q 917.43 505.42 918.39 504.86
  Z"
/>
<path fill="#e8772e" d="
  M 474.98 762.04
  A 0.37 0.33 43.5 0 1 474.93 761.43
  L 543.06 721.57
  A 1.03 0.86 -42.9 0 1 544.01 721.52
  Q 626.05 768.98 708.05 816.46
  Q 710.67 817.97 711.83 818.91
  A 1.16 0.53 -82.7 0 1 712.09 819.75
  L 711.97 897.75
  A 0.49 0.31 -81.4 0 1 711.51 898.28
  L 474.98 762.04
  Z"
/>
<path fill="#e8772e" d="
  M 973.08 762.04
  L 736.04 898.32
  A 0.36 0.36 -13.7 0 1 735.50 898.01
  L 735.50 819.00
  A 0.36 0.36 -15.0 0 1 735.68 818.69
  L 903.87 721.36
  A 0.36 0.36 -44.7 0 1 904.23 721.37
  L 973.08 761.42
  A 0.36 0.36 -44.4 0 1 973.08 762.04
  Z"
/>
<path fill="#e8772e" d="
  M 467.86 963.68
  C 476.52 952.60 470.58 933.75 453.95 940.51
  C 446.94 943.35 447.21 951.75 449.79 957.45
  Q 455.74 970.61 462.79 983.23
  C 472.57 1000.72 477.30 1022.63 457.71 1035.31
  C 439.65 1046.99 413.63 1039.78 411.36 1016.07
  C 409.80 999.88 421.52 987.65 435.14 980.78
  A 1.13 1.12 63.0 0 0 435.63 979.25
  C 427.56 963.82 418.72 944.78 436.50 932.20
  C 459.74 915.76 495.40 931.98 478.76 964.06
  A 0.88 0.82 12.8 0 1 478.00 964.50
  L 468.25 964.50
  Q 467.22 964.50 467.86 963.68
  Z
  M 430.10 1024.42
  C 435.06 1028.28 443.41 1028.02 447.45 1023.18
  C 454.77 1014.41 446.34 999.96 441.27 990.87
  A 0.54 0.53 -28.1 0 0 440.57 990.66
  Q 436.33 992.76 432.12 996.35
  C 424.01 1003.25 420.53 1016.96 430.10 1024.42
  Z"
/>
<circle fill="#e8772e" cx="502.73" cy="938.16" r="11.81"/>
<path fill="#e8772e" d="
  M 672.96 962.50
  L 672.29 968.25
  Q 668.70 994.01 666.15 1019.89
  C 664.93 1032.19 676.08 1025.76 679.48 1020.97
  Q 680.99 1018.85 681.45 1015.22
  Q 683.09 1002.27 684.29 989.25
  Q 685.88 986.91 685.21 984.00
  L 685.46 982.00
  Q 686.56 977.56 686.29 973.00
  L 688.29 956.50
  Q 689.49 952.59 689.21 948.50
  L 691.66 927.66
  A 0.71 0.69 -4.3 0 1 692.19 927.06
  C 698.64 925.45 712.55 924.35 711.50 935.06
  Q 709.69 953.33 706.48 972.95
  Q 706.07 975.48 708.01 973.81
  C 718.68 964.60 742.15 965.76 745.41 982.47
  Q 746.15 986.27 744.81 994.96
  Q 743.03 1006.46 741.70 1017.99
  C 740.07 1032.22 751.94 1026.65 755.85 1020.00
  A 1.41 1.29 57.3 0 0 756.01 1019.07
  C 749.66 985.69 777.35 959.81 809.78 970.32
  A 1.49 1.24 -44.7 0 0 810.80 970.23
  Q 819.04 966.37 827.82 969.15
  A 0.63 0.55 -78.7 0 1 828.19 969.79
  C 827.36 979.03 825.74 988.11 824.77 997.31
  C 824.19 1002.74 823.09 1008.27 822.71 1013.51
  C 822.42 1017.70 820.39 1028.77 828.33 1026.79
  C 835.33 1025.03 840.81 1012.88 841.79 1006.74
  Q 843.05 998.87 846.02 970.31
  A 0.80 0.79 -7.1 0 1 846.55 969.64
  C 852.65 967.48 864.36 965.97 866.34 974.03
  Q 866.45 974.50 866.80 974.16
  C 873.38 967.82 886.65 964.67 893.48 972.67
  Q 894.04 973.33 894.19 972.68
  L 895.08 968.57
  A 0.67 0.61 -83.7 0 1 895.69 968.03
  L 907.50 967.99
  A 0.93 0.85 2.8 0 0 908.40 967.24
  L 913.10 927.82
  A 0.80 0.78 85.8 0 1 913.67 927.14
  C 923.23 924.46 933.94 925.74 932.31 938.72
  Q 930.50 953.09 928.83 967.47
  A 0.48 0.43 -86.4 0 0 929.25 968.00
  L 950.00 968.00
  A 0.75 0.50 0.0 0 1 950.75 968.50
  L 950.75 979.00
  A 0.75 0.50 -0.0 0 1 950.00 979.50
  L 928.00 979.50
  A 0.69 0.63 5.0 0 0 927.33 980.01
  L 926.78 982.76
  A 0.93 0.70 29.3 0 0 927.13 983.55
  C 939.99 993.99 947.64 1009.24 942.79 1025.99
  C 936.90 1046.32 898.64 1047.76 902.52 1018.35
  Q 904.30 1004.84 905.54 991.25
  Q 907.20 987.00 906.55 982.43
  L 906.68 980.04
  A 0.51 0.44 -88.2 0 0 906.25 979.50
  L 896.25 979.50
  A 0.80 0.40 -78.6 0 0 895.76 980.13
  Q 893.10 990.69 881.98 990.57
  A 0.51 0.50 2.2 0 1 881.48 990.04
  C 882.17 976.43 869.56 979.87 866.12 988.30
  A 0.69 0.69 -59.4 0 0 866.32 989.09
  C 876.53 997.61 883.38 1008.04 881.70 1021.67
  C 880.23 1033.53 870.96 1041.05 858.78 1040.66
  C 850.84 1040.41 844.98 1036.88 842.20 1029.10
  Q 842.03 1028.63 841.75 1029.04
  C 833.21 1041.30 812.96 1046.37 804.02 1031.62
  A 0.38 0.37 50.9 0 0 803.43 1031.55
  C 790.78 1045.02 772.58 1042.96 761.08 1030.06
  A 0.41 0.41 -47.5 0 0 760.45 1030.09
  Q 754.03 1038.42 744.48 1040.02
  C 734.59 1041.67 725.40 1037.67 722.88 1027.59
  Q 721.97 1023.92 722.79 1016.33
  Q 723.82 1006.81 724.86 997.26
  C 725.59 990.60 727.11 982.85 719.68 980.78
  C 709.38 977.92 704.81 989.44 703.78 997.38
  Q 701.10 1018.25 698.47 1039.13
  A 0.70 0.44 -84.7 0 1 698.00 1039.75
  L 679.25 1039.75
  A 0.54 0.45 2.8 0 1 678.70 1039.25
  L 679.01 1036.74
  Q 679.15 1035.61 678.08 1036.30
  C 668.35 1042.61 654.19 1042.47 647.54 1031.59
  A 0.35 0.35 48.8 0 0 646.97 1031.55
  C 635.24 1045.66 614.68 1042.60 604.15 1028.91
  A 0.37 0.36 43.4 0 0 603.56 1028.92
  Q 594.89 1041.27 580.49 1040.34
  C 574.53 1039.96 568.93 1037.26 566.12 1032.07
  A 0.88 0.88 -37.3 0 0 564.72 1031.88
  C 552.47 1044.62 534.50 1043.14 523.31 1030.34
  A 0.51 0.51 -40.9 0 0 522.60 1030.29
  Q 521.30 1031.37 520.18 1032.63
  C 514.31 1039.20 506.16 1042.03 497.45 1040.52
  C 482.16 1037.86 482.11 1026.74 483.61 1013.21
  Q 485.79 993.59 488.16 973.98
  A 1.82 1.61 71.8 0 1 488.54 973.10
  C 493.02 967.77 502.86 967.54 508.98 969.02
  A 0.41 0.41 -79.3 0 1 509.28 969.46
  Q 506.18 993.63 503.02 1017.75
  C 501.22 1031.48 513.60 1027.92 517.69 1020.14
  A 1.54 1.43 55.4 0 0 517.83 1019.19
  C 512.52 986.50 536.71 961.13 569.65 969.60
  A 0.42 0.41 -79.1 0 0 570.16 969.24
  L 574.56 932.31
  A 1.94 1.73 71.5 0 1 574.98 931.33
  C 579.70 925.69 588.85 925.05 595.19 927.48
  A 0.64 0.63 -75.5 0 1 595.58 928.16
  Q 591.33 961.37 587.00 994.49
  Q 585.24 1007.97 584.22 1021.49
  Q 583.83 1026.77 588.41 1026.99
  Q 590.75 1027.10 592.96 1025.47
  Q 596.81 1022.62 599.19 1018.45
  A 1.73 1.02 -44.8 0 0 599.44 1017.50
  C 595.55 985.33 619.15 961.30 651.48 969.58
  A 0.44 0.43 11.0 0 0 652.03 969.22
  Q 654.15 951.50 656.29 933.83
  C 657.32 925.37 671.27 925.45 677.09 927.38
  A 0.62 0.60 13.1 0 1 677.51 928.04
  L 672.96 962.50
  Z
  M 619.92 1013.25
  C 620.20 1020.60 625.88 1028.11 633.82 1026.94
  C 642.02 1025.72 646.04 1017.08 646.99 1009.79
  Q 648.77 996.07 650.36 982.26
  A 0.69 0.68 -73.9 0 0 649.98 981.56
  Q 646.17 979.80 643.80 979.67
  C 624.55 978.65 619.36 998.25 619.92 1013.25
  Z
  M 538.12 1012.00
  C 538.24 1029.14 556.72 1032.41 563.40 1017.03
  Q 564.79 1013.83 565.65 1006.23
  Q 566.99 994.25 568.51 982.20
  A 0.65 0.65 15.0 0 0 568.11 981.51
  C 545.87 972.76 538.00 995.22 538.12 1012.00
  Z
  M 778.41 1020.80
  C 783.35 1028.72 792.54 1029.14 798.50 1021.67
  Q 802.62 1016.50 803.01 1012.48
  Q 804.48 997.31 806.42 981.97
  A 0.61 0.61 12.9 0 0 806.01 981.32
  Q 787.90 975.21 780.02 991.54
  C 776.50 998.82 774.25 1014.13 778.41 1020.80
  Z
  M 924.49 1026.09
  Q 926.18 1028.00 928.50 1026.96
  C 932.50 1025.17 933.88 1021.77 934.11 1017.38
  Q 934.76 1004.83 925.78 995.59
  Q 925.43 995.22 925.35 995.72
  C 924.22 1003.71 923.64 1011.72 922.63 1019.68
  Q 922.16 1023.46 924.49 1026.09
  Z
  M 860.70 1020.73
  C 859.81 1028.57 869.59 1029.43 871.59 1021.89
  C 873.86 1013.33 869.83 1005.77 863.91 999.82
  Q 863.39 999.30 863.30 1000.02
  Q 861.86 1010.49 860.70 1020.73
  Z"
/>
<path fill="#e8772e" d="
  M 975.64 974.16
  Q 975.48 975.23 976.32 974.55
  C 985.43 967.11 998.94 965.42 1008.32 972.40
  C 1015.55 977.79 1015.56 984.89 1014.17 993.91
  Q 1012.42 1005.27 1011.07 1016.67
  C 1010.57 1020.93 1010.40 1028.07 1016.59 1026.77
  C 1024.66 1025.09 1028.71 1013.77 1030.77 1006.67
  Q 1031.00 1005.87 1031.39 1006.38
  L 1036.26 1012.75
  A 3.58 2.25 -62.7 0 1 1036.50 1015.60
  C 1032.84 1027.69 1025.59 1039.03 1011.81 1040.30
  C 998.42 1041.53 990.35 1032.56 991.74 1019.38
  Q 993.03 1007.08 994.32 994.71
  C 995.18 986.48 994.51 979.62 984.26 980.52
  C 978.53 981.02 974.00 989.44 973.30 994.80
  Q 970.41 1016.95 967.69 1039.13
  A 0.70 0.40 -84.5 0 1 967.25 1039.75
  L 949.00 1039.75
  A 1.12 1.05 -86.4 0 1 947.97 1038.50
  L 960.80 928.01
  A 0.95 0.68 88.1 0 1 961.31 927.25
  C 967.44 925.42 981.84 924.45 980.73 934.75
  Q 978.57 954.77 975.64 974.16
  Z"
/>
<path fill="#f3c099" d="
  M 689.21 948.50
  Q 689.49 952.59 688.29 956.50
  Q 688.21 952.44 689.21 948.50
  Z"
/>
<path fill="#f3c099" d="
  M 672.96 962.50
  Q 673.36 965.49 672.29 968.25
  L 672.96 962.50
  Z"
/>
<path fill="#f3c099" d="
  M 686.29 973.00
  Q 686.56 977.56 685.46 982.00
  L 686.29 973.00
  Z"
/>
<path fill="#ffffff" d="
  M 633.82 1026.94
  C 625.88 1028.11 620.20 1020.60 619.92 1013.25
  C 619.36 998.25 624.55 978.65 643.80 979.67
  Q 646.17 979.80 649.98 981.56
  A 0.69 0.68 -73.9 0 1 650.36 982.26
  Q 648.77 996.07 646.99 1009.79
  C 646.04 1017.08 642.02 1025.72 633.82 1026.94
  Z"
/>
<path fill="#ffffff" d="
  M 563.40 1017.03
  C 556.72 1032.41 538.24 1029.14 538.12 1012.00
  C 538.00 995.22 545.87 972.76 568.11 981.51
  A 0.65 0.65 15.0 0 1 568.51 982.20
  Q 566.99 994.25 565.65 1006.23
  Q 564.79 1013.83 563.40 1017.03
  Z"
/>
<path fill="#ffffff" d="
  M 778.41 1020.80
  C 774.25 1014.13 776.50 998.82 780.02 991.54
  Q 787.90 975.21 806.01 981.32
  A 0.61 0.61 12.9 0 1 806.42 981.97
  Q 804.48 997.31 803.01 1012.48
  Q 802.62 1016.50 798.50 1021.67
  C 792.54 1029.14 783.35 1028.72 778.41 1020.80
  Z"
/>
<path fill="#f3c099" d="
  M 906.55 982.43
  Q 907.20 987.00 905.54 991.25
  Q 905.20 986.77 906.55 982.43
  Z"
/>
<path fill="#f3c099" d="
  M 685.21 984.00
  Q 685.88 986.91 684.29 989.25
  L 685.21 984.00
  Z"
/>
<path fill="#ffffff" d="
  M 430.10 1024.42
  C 420.53 1016.96 424.01 1003.25 432.12 996.35
  Q 436.33 992.76 440.57 990.66
  A 0.54 0.53 -28.1 0 1 441.27 990.87
  C 446.34 999.96 454.77 1014.41 447.45 1023.18
  C 443.41 1028.02 435.06 1028.28 430.10 1024.42
  Z"
/>
<path fill="#ffffff" d="
  M 924.49 1026.09
  Q 922.16 1023.46 922.63 1019.68
  C 923.64 1011.72 924.22 1003.71 925.35 995.72
  Q 925.43 995.22 925.78 995.59
  Q 934.76 1004.83 934.11 1017.38
  C 933.88 1021.77 932.50 1025.17 928.50 1026.96
  Q 926.18 1028.00 924.49 1026.09
  Z"
/>
<path fill="#ffffff" d="
  M 871.59 1021.89
  C 869.59 1029.43 859.81 1028.57 860.70 1020.73
  Q 861.86 1010.49 863.30 1000.02
  Q 863.39 999.30 863.91 999.82
  C 869.83 1005.77 873.86 1013.33 871.59 1021.89
  Z"
/>
<rect fill="#e8772e" x="565.03" y="1068.26" width="10.46" height="70.90" rx="4.13"/>
<path fill="#e8772e" d="
  M 696.58 1091.27
  Q 695.30 1087.98 695.05 1087.69
  Q 694.05 1086.50 692.58 1087.38
  A 1.11 0.59 82.8 0 0 692.25 1088.25
  Q 692.24 1110.53 692.26 1132.81
  C 692.27 1138.35 689.75 1140.41 684.27 1138.59
  Q 681.75 1137.75 681.75 1135.25
  L 681.76 1073.82
  Q 681.76 1071.24 683.93 1069.89
  C 689.21 1066.61 697.22 1067.38 699.94 1074.14
  Q 708.94 1096.52 717.83 1118.94
  C 718.38 1120.32 719.53 1121.18 720.70 1119.84
  A 1.34 1.16 68.9 0 0 721.00 1119.00
  L 721.00 1072.00
  Q 721.00 1069.51 723.34 1068.71
  C 727.74 1067.20 731.27 1068.45 731.26 1073.45
  Q 731.22 1102.44 731.27 1131.38
  C 731.28 1137.65 727.75 1138.50 722.56 1139.03
  Q 715.90 1139.70 713.27 1133.25
  Q 704.79 1112.47 696.58 1091.27
  Z"
/>
<rect fill="#e8772e" x="989.25" y="1068.29" width="10.32" height="70.82" rx="3.82"/>
<rect fill="#e8772e" x="1026.51" y="1068.24" width="10.48" height="70.92" rx="4.19"/>
<path fill="#e8772e" d="
  M 446.43 1108.55
  Q 445.40 1107.22 443.72 1107.24
  C 436.09 1107.34 423.60 1108.26 417.55 1104.92
  C 409.83 1100.68 410.86 1091.80 411.09 1082.99
  C 411.55 1065.25 431.08 1068.37 442.76 1068.45
  C 449.13 1068.49 456.04 1071.78 457.91 1077.96
  C 458.89 1081.19 458.54 1085.32 458.49 1088.77
  Q 458.47 1090.54 456.79 1091.12
  C 441.47 1096.43 454.59 1077.46 441.68 1077.49
  C 436.87 1077.50 421.78 1075.25 421.58 1082.33
  C 421.35 1090.11 419.27 1098.28 428.53 1098.25
  C 436.54 1098.22 446.44 1096.80 453.35 1101.66
  C 460.14 1106.44 458.50 1114.63 458.57 1121.74
  C 458.69 1134.93 452.49 1138.50 440.22 1138.74
  C 424.24 1139.07 409.56 1140.61 411.06 1119.24
  C 411.33 1115.34 413.16 1114.56 416.74 1114.81
  C 427.30 1115.55 415.28 1129.74 428.07 1129.75
  Q 435.80 1129.76 443.51 1129.74
  C 450.33 1129.73 449.03 1111.92 446.43 1108.55
  Z"
/>
<path fill="#e8772e" d="
  M 848.57 1128.20
  A 3.00 3.00 76.7 0 0 850.79 1129.57
  Q 858.56 1130.35 866.42 1129.85
  C 870.43 1129.60 872.74 1128.43 872.85 1124.17
  Q 873.05 1116.14 873.00 1108.09
  C 872.94 1100.28 883.20 1100.71 883.36 1107.31
  C 883.60 1116.79 886.18 1132.00 875.95 1136.95
  Q 872.49 1138.63 863.37 1138.78
  C 852.95 1138.95 843.05 1140.12 838.04 1130.93
  C 836.29 1127.71 836.49 1121.57 836.60 1117.77
  C 836.88 1107.57 836.31 1097.35 836.65 1087.19
  C 836.89 1079.86 836.48 1075.46 842.07 1071.59
  C 848.49 1067.13 859.03 1068.44 866.50 1068.46
  C 879.67 1068.51 883.76 1077.57 882.30 1089.36
  Q 882.02 1091.63 879.92 1092.37
  Q 875.55 1093.93 872.49 1090.84
  A 1.47 0.39 -88.2 0 1 872.24 1089.76
  C 871.97 1083.92 873.53 1077.59 865.25 1077.52
  Q 859.50 1077.47 853.76 1077.51
  C 848.07 1077.54 846.88 1080.72 847.09 1085.81
  C 847.63 1098.63 847.27 1111.65 847.24 1124.49
  C 847.24 1125.99 847.81 1127.01 848.57 1128.20
  Z"
/>
<circle fill="#e8772e" cx="1013.03" cy="1102.20" r="7.21"/>
<circle fill="#e8772e" cx="861.39" cy="1105.87" r="7.21"/>
</svg>
